<svg width="34" height="33" viewBox="0 0 34 33" fill="none" xmlns="http://www.w3.org/2000/svg">
<g clip-path="url(#clip0_334_115381)">
<path fill-rule="evenodd" clip-rule="evenodd" d="M16.748 0.697266C7.6164 0.697266 0.234375 8.03057 0.234375 17.1029C0.234375 24.3548 4.96429 30.4935 11.5259 32.6661C12.3463 32.8295 12.6468 32.3131 12.6468 31.8788C12.6468 31.4985 12.6198 30.1948 12.6198 28.8365C8.02608 29.8145 7.06949 26.8808 7.06949 26.8808C6.33125 24.9795 5.23742 24.4908 5.23742 24.4908C3.7339 23.4858 5.34693 23.4858 5.34693 23.4858C7.01473 23.5945 7.88986 25.1698 7.88986 25.1698C9.366 27.6685 11.7446 26.9625 12.7016 26.5278C12.8381 25.4685 13.2759 24.7352 13.7407 24.3278C10.0769 23.9475 6.22207 22.5352 6.22207 16.2335C6.22207 14.4409 6.87783 12.9742 7.9169 11.8336C7.75296 11.4262 7.17867 9.74189 8.08118 7.48757C8.08118 7.48757 9.47552 7.05291 12.6194 9.17156C13.9655 8.81245 15.3536 8.62977 16.748 8.62823C18.1424 8.62823 19.5637 8.81857 20.8763 9.17156C24.0205 7.05291 25.4149 7.48757 25.4149 7.48757C26.3174 9.74189 25.7428 11.4262 25.5788 11.8336C26.6453 12.9742 27.274 14.4409 27.274 16.2335C27.274 22.5352 23.4192 23.9202 19.728 24.3278C20.3297 24.8438 20.8489 25.8215 20.8489 27.3698C20.8489 29.5698 20.8218 31.3355 20.8218 31.8785C20.8218 32.3131 21.1227 32.8295 21.9427 32.6665C28.5044 30.4931 33.2343 24.3548 33.2343 17.1029C33.2613 8.03057 25.8523 0.697266 16.748 0.697266Z" fill="white"/>
</g>
<defs>
<clipPath id="clip0_334_115381">
<rect width="33" height="32" fill="white" transform="translate(0.234375 0.736328)"/>
</clipPath>
</defs>
</svg>
