<svg width="33" height="27" viewBox="0 0 33 27" fill="none" xmlns="http://www.w3.org/2000/svg">
<path d="M19.4458 1.42746C20.524 0.819577 21.7856 0.693411 23.0014 0.750758C24.3548 0.945741 25.6853 1.46187 26.7175 2.37943C26.9125 2.54001 27.096 2.80381 27.3828 2.73499C28.3691 2.56295 29.2982 2.18445 30.2043 1.78302C30.5828 1.61097 30.9498 1.39305 31.3283 1.22101C31.0301 2.17298 30.5254 3.07907 29.8143 3.77872C29.4702 4.14574 29.0917 4.46689 28.6903 4.7651C29.1261 4.81097 29.539 4.6504 29.9519 4.57011C30.3648 4.48983 30.7548 4.34072 31.1562 4.21456C31.5233 4.09986 31.8559 3.90488 32.2344 3.82459C31.6494 4.67334 30.9957 5.47621 30.2387 6.17585C29.8487 6.57728 29.3899 6.88696 28.9656 7.23104C28.9656 7.80452 29.0344 8.378 28.9082 8.94001C28.8623 9.38732 28.8853 9.8461 28.8394 10.3049C28.7362 10.9013 28.6329 11.4977 28.5182 12.0941C28.3462 12.5873 28.2774 13.092 28.1168 13.5852C27.9562 14.1472 27.7154 14.6748 27.5204 15.2253C26.7749 16.9457 25.8573 18.5974 24.653 20.0425C24.0107 20.8798 23.2308 21.6024 22.4623 22.3364C21.4186 23.2081 20.3061 24.0224 19.0788 24.6189C17.4501 25.4676 15.7068 26.1328 13.8831 26.3852C13.4129 26.5113 12.9197 26.4999 12.4494 26.6146C11.8989 26.626 11.3713 26.7522 10.8208 26.7293C10.2817 26.7178 9.74262 26.7522 9.20355 26.7178C8.67595 26.6031 8.13688 26.6719 7.60929 26.5457C6.01502 26.3164 4.43222 25.892 2.95265 25.2382C2.27595 24.9629 1.63366 24.6074 0.979895 24.2748C0.716095 24.1371 0.440827 24.011 0.234375 23.8045C0.968425 23.7701 1.71395 23.8275 2.448 23.7931C3.06735 23.8045 3.67524 23.6898 4.28312 23.5751C6.30176 23.2081 8.18276 22.302 9.82291 21.0977C9.03151 21.0174 8.24011 20.8798 7.50606 20.5586C6.66878 20.1801 5.85445 19.6984 5.23509 19.0103C4.66162 18.3909 4.20283 17.6683 3.88169 16.8884C3.82434 16.7622 3.81287 16.6246 3.78993 16.4984C4.67308 16.6131 5.59065 16.659 6.45086 16.4067C6.10678 16.2346 5.70534 16.1773 5.36126 15.9938C4.15696 15.4662 3.1247 14.5486 2.43653 13.4246C1.96627 12.702 1.70247 11.8762 1.51896 11.0389C1.46161 10.6604 1.47308 10.2705 1.46161 9.89198C1.86305 9.9952 2.2186 10.2246 2.62004 10.3393C3.11323 10.4884 3.60642 10.649 4.13402 10.6031C3.70964 10.0984 3.14764 9.69699 2.76914 9.14646C2.12685 8.24036 1.67954 7.18517 1.57631 6.08409C1.47308 5.64825 1.47308 5.18947 1.51896 4.74216C1.58778 4.46689 1.62219 4.18015 1.63366 3.89341C1.75982 3.20524 2.0695 2.56295 2.35624 1.93212C2.66592 2.16151 2.90678 2.48266 3.15911 2.78087C4.31753 4.06545 5.69387 5.12065 7.13903 6.06115C7.76986 6.42818 8.41215 6.7952 9.07739 7.10488C10.339 7.66689 11.658 8.12567 13.0114 8.40094C13.9634 8.61886 14.9383 8.69915 15.9018 8.77943C15.8903 8.51563 15.7871 8.2633 15.7756 7.98803C15.7527 7.50631 15.7527 7.02459 15.7756 6.54287C15.9018 5.33857 16.4179 4.19162 17.1405 3.22818C17.7828 2.49413 18.5512 1.84037 19.4458 1.42746Z" fill="white"/>
</svg>
