<svg width="1920" height="900" viewBox="0 0 1920 900" fill="none" xmlns="http://www.w3.org/2000/svg">
    <g clip-path="url(#clip0_461_172899)">

        <g clip-path="url(#clip1_461_172899)">
            <path
                d="M1373 894.254C1373 269 2050.7 420.348 2037.09 387L2220.18 708.001L2185.42 2649C1975.66 2595 1632.95 2389.3 1588.12 2019C1564.15 1821 1583.19 1743.43 1674.72 1430.25C1752.53 1164.05 1772.25 1039.12 1711.84 966.686C1654.87 910.212 1552.63 987.381 1469.62 1039.12C1386.61 1090.85 1373 954.179 1373 894.254Z"
                stroke="white" stroke-width="3" />
        </g>
        <g clip-path="url(#clip2_461_172899)">
            <path
                d="M1442 930.254C1442 305 2120.5 456.348 2106.88 423L2290.18 744.001L2255.38 2685C2045.38 2631 1702.26 2425.3 1657.38 2055C1633.38 1857 1652.44 1779.43 1744.08 1466.25C1821.98 1200.05 1841.72 1075.12 1781.24 1002.69C1724.2 946.212 1621.84 1023.38 1538.73 1075.12C1455.62 1126.85 1442 990.179 1442 930.254Z"
                fill="#5E409E" />
        </g>
        <g clip-path="url(#clip3_461_172899)">
            <mask id="mask0_461_172899" style="mask-type:alpha" maskUnits="userSpaceOnUse" x="1612" y="-1123"
                width="1411" height="1807">
                <path
                    d="M1802.45 -82.8109C1800.12 23.4258 2085.08 108.867 2064.34 225.538C2000.55 426.62 1949.41 386.408 1940.6 487.425C1963.53 781.171 2766.23 653.497 3022.79 669.889C2661.85 -218.854 2456.5 -759.498 1694.76 -1122.29C1685.68 -1011.79 1597.64 -763.854 1614.98 -673.474C1636.65 -560.499 1664.55 -359.455 1926.46 -444.43C2040.41 -481.399 1805.35 -215.607 1802.45 -82.8109Z"
                    fill="url(#paint0_linear_461_172899)" />
            </mask>
            <g mask="url(#mask0_461_172899)">
                <path fill-rule="evenodd" clip-rule="evenodd"
                    d="M1998.64 1317.77L2001.99 1323.88L2878.96 843.33L2875.61 837.216L1998.64 1317.77ZM1972.82 1270.64L1979.52 1282.87L2856.49 802.318L2849.78 790.088L1972.82 1270.64ZM1946.99 1223.51L1953.69 1235.74L2830.66 755.19L2823.96 742.961L1946.99 1223.51ZM1921.17 1176.38L1927.87 1188.61L2804.84 708.063L2798.14 695.833L1921.17 1176.38ZM1895.34 1129.26L1902.05 1141.48L2779.01 660.935L2772.31 648.705L1895.34 1129.26ZM1869.52 1082.13L1876.22 1094.36L2753.19 613.807L2746.49 601.578L1869.52 1082.13ZM1843.7 1035L1850.4 1047.23L2727.36 566.68L2720.66 554.45L1843.7 1035ZM1817.87 987.873L1824.57 1000.1L2701.54 519.552L2694.84 507.323L1817.87 987.873ZM1792.05 940.745L1798.75 952.974L2675.72 472.425L2669.01 460.195L1792.05 940.745ZM1766.22 893.617L1772.92 905.847L2649.89 425.297L2643.19 413.068L1766.22 893.617ZM1740.4 846.49L1747.1 858.719L2624.07 378.169L2617.37 365.94L1740.4 846.49ZM1714.57 799.362L1721.27 811.592L2598.24 331.042L2591.54 318.812L1714.57 799.362ZM1688.75 752.235L1695.45 764.464L2572.42 283.914L2565.72 271.685L1688.75 752.235ZM1662.92 705.107L1669.63 717.337L2546.59 236.787L2539.89 224.557L1662.92 705.107ZM1637.1 657.979L1643.8 670.209L2520.77 189.659L2514.07 177.43L1637.1 657.979ZM1611.28 610.852L1617.98 623.081L2494.94 142.531L2488.24 130.302L1611.28 610.852ZM1585.45 563.724L1592.15 575.954L2469.12 95.4039L2462.42 83.1744L1585.45 563.724ZM1559.63 516.597L1566.33 528.826L2443.3 48.2764L2436.59 36.0469L1559.63 516.597ZM1533.8 469.469L1540.5 481.699L2417.47 1.14877L2410.77 -11.0808L1533.8 469.469ZM1507.98 422.342L1514.68 434.571L2391.65 -45.9789L2384.95 -58.2083L1507.98 422.342ZM1482.15 375.214L1488.86 387.444L2365.82 -93.1064L2359.12 -105.336L1482.15 375.214ZM1456.33 328.086L1463.03 340.316L2340 -140.234L2333.3 -152.463L1456.33 328.086ZM1430.51 280.959L1437.21 293.188L2314.17 -187.362L2307.47 -199.591L1430.51 280.959ZM1404.68 233.831L1411.38 246.061L2288.35 -234.489L2281.65 -246.719L1404.68 233.831ZM1378.86 186.704L1385.56 198.933L2262.53 -281.617L2255.82 -293.846L1378.86 186.704ZM1353.03 139.576L1359.73 151.806L2236.7 -328.744L2230 -340.974L1353.03 139.576ZM1327.21 92.4485L1333.91 104.678L2210.88 -375.872L2204.17 -388.101L1327.21 92.4485ZM1301.38 45.321L1308.08 57.5506L2185.05 -422.999L2178.35 -435.229L1301.38 45.321ZM1275.56 -1.80665L1282.26 10.4229L2159.23 -470.127L2152.53 -482.356L1275.56 -1.80665ZM1249.73 -48.9342L1256.44 -36.7047L2133.4 -517.255L2126.7 -529.484L1249.73 -48.9342ZM1223.91 -96.0617L1230.61 -83.8323L2107.58 -564.382L2100.88 -576.612L1223.91 -96.0617ZM1198.09 -143.189L1204.79 -130.96L2081.75 -611.51L2075.05 -623.739L1198.09 -143.189ZM1172.26 -190.317L1178.96 -178.088L2055.93 -658.637L2049.23 -670.867L1172.26 -190.317ZM1146.44 -237.444L1153.14 -225.215L2030.11 -705.765L2023.4 -717.994L1146.44 -237.444ZM1120.61 -284.572L1127.31 -272.343L2004.28 -752.892L1997.58 -765.122L1120.61 -284.572ZM1094.79 -331.7L1101.49 -319.47L1978.46 -800.02L1971.76 -812.25L1094.79 -331.7ZM1068.96 -378.827L1075.66 -366.598L1952.63 -847.147L1945.93 -859.377L1068.96 -378.827ZM1043.14 -425.955L1049.84 -413.725L1926.81 -894.275L1920.11 -906.505L1043.14 -425.955ZM1017.31 -473.083L1024.02 -460.853L1900.98 -941.403L1894.28 -953.632L1017.31 -473.083ZM991.49 -520.21L998.192 -507.98L1875.16 -988.53L1868.46 -1000.76L991.49 -520.21ZM969.016 -561.223L972.368 -555.108L1849.33 -1035.66L1845.98 -1041.77L969.016 -561.223Z"
                    fill="#67E6F9" />
            </g>
        </g>
        <g clip-path="url(#clip4_461_172899)">
            <path
                d="M574.694 -884.323C567.739 -980.113 574.694 -990.782 589 -1014L-315.909 -1014L-316.748 -304.665C-308.019 -260.285 -307.02 -234.113 -316.748 -188.565C-338.536 -116.322 -338.298 220.365 -316.748 291.5C-115.5 291.5 266.168 100.594 331.894 -99.0545C385.841 -262.92 353.733 -293.091 257.506 -511.14C175.712 -696.483 154.981 -783.462 218.488 -833.893C278.375 -873.212 385.862 -819.484 473.126 -783.462C560.389 -747.441 577.72 -842.649 574.694 -884.323Z"
                fill="#5E409E" />
        </g>
    </g>
    <defs>
        <linearGradient id="paint0_linear_461_172899" x1="1968.32" y1="101.217" x2="1480.75" y2="-1077.72"
            gradientUnits="userSpaceOnUse">
            <stop stop-color="#BB5EB3" />
            <stop offset="0.260088" stop-color="#522BB1" />
            <stop offset="1" stop-color="#AC5691" />
        </linearGradient>
        <clipPath id="clip0_461_172899">
            <rect width="1920" height="900" fill="white" />
        </clipPath>
        <clipPath id="clip1_461_172899">
            <rect width="547" height="512" fill="white" transform="translate(1373 387)" />
        </clipPath>
        <clipPath id="clip2_461_172899">
            <rect width="478" height="469" fill="white" transform="translate(1442 431)" />
        </clipPath>
        <clipPath id="clip3_461_172899">
            <rect width="297" height="54" fill="white" transform="translate(1623 -1)" />
        </clipPath>
        <clipPath id="clip4_461_172899">
            <rect width="282" height="210" fill="white" transform="translate(0 -1)" />
        </clipPath>
    </defs>
</svg>