<?xml version="1.0" encoding="UTF-8"?>
<svg id="Livello_2" data-name="Livello 2" xmlns="http://www.w3.org/2000/svg" width="1406.96" height="156.87" viewBox="0 0 1406.96 156.87">
  <defs>
    <style>
      .cls-1, .cls-2 {
        fill: none;
      }

      .cls-3 {
        fill: #fff;
      }

      .cls-3, .cls-2 {
        isolation: isolate;
        opacity: .4;
      }

      .cls-2 {
        stroke: #fff;
        stroke-linecap: round;
        stroke-linejoin: round;
        stroke-width: 0px;
      }
    </style>
  </defs>
  <g id="Livello_1-2" data-name="Livello 1">
    <g>
      <polygon class="cls-1" points="130.58 40.89 129.7 41.19 130.58 40.89 130.58 40.89"/>
      <polygon class="cls-1" points="468.93 60.54 469.37 61.35 468.93 60.54 468.93 60.54"/>
      <polygon class="cls-1" points="503.23 85.68 503.22 85.69 502.44 86.16 503.23 85.68"/>
      <polygon class="cls-1" points="436.13 108.82 435.45 109.45 436.13 108.82 436.13 108.82"/>
      <polygon class="cls-1" points="478.92 102 478.49 101.18 478.91 101.98 478.92 102"/>
      <polygon class="cls-1" points="478.42 93.84 477.95 94.64 478.42 93.84 478.42 93.84"/>
      <polygon class="cls-1" points="446.12 116.82 445.67 117.63 446.12 116.81 446.12 116.82"/>
      <polygon class="cls-1" points="471.1 91.01 470.83 91.9 471.09 91.02 471.1 91.01"/>
      <polygon class="cls-1" points="496.5 116.09 497.1 116.85 496.5 116.08 497.07 116.82 496.5 116.09"/>
      <polygon class="cls-1" points="445.96 51.05 446.71 51.58 445.96 51.05 445.96 51.05"/>
      <polygon class="cls-1" points="493.41 42.22 493.05 43.07 493.4 42.24 493.41 42.22"/>
      <polygon class="cls-1" points="444.77 76.7 444 77.17 444.79 76.69 444.77 76.7"/>
      <path class="cls-1" d="M493.07,43.08h-.01s-.01,0-.01,0c-5.65-2.39-11.85-3.59-18.62-3.59s-12.03,1.09-16.77,3.25c-4.75,2.16-8.39,5.11-10.94,8.84h0c-2.54,3.61-3.83,7.91-3.83,12.96,0,4.76,.92,8.64,2.7,11.68,1.81,2.98,4.14,5.31,7,7.01,2.93,1.74,6.03,3.09,9.29,4.07,3.33,1,6.49,1.94,9.49,2.83h0c3.01,.78,5.51,1.74,7.48,2.89h0s0,0,.01,0c.01,0,.03,.01,.04,.02h0c1.08,.55,1.95,1.26,2.55,2.16,.61,.92,.9,1.98,.9,3.14,0,1.97-1.09,3.46-2.97,4.47h0s0,0,0,0c0,0,0,0-.01,0h0c-1.76,.99-4.21,1.44-7.26,1.44-4.44,0-8.56-.8-12.35-2.4h-.01s-.01-.01-.01-.01c-3.47-1.58-6.51-3.7-9.11-6.35l-13.17,13.33c2.58,2.67,5.62,5.07,9.15,7.19,3.92,2.18,8.12,3.87,12.6,5.07h0c4.59,1.2,9.22,1.8,13.91,1.8,9.96,0,17.73-2.3,23.4-6.79h0c5.76-4.48,8.63-10.48,8.63-18.09,0-5-.92-8.92-2.7-11.84h0s0-.01,0-.01c-1.82-3.1-4.16-5.54-7.02-7.34-2.93-1.85-6.03-3.31-9.29-4.4-3.31-1.1-6.46-2.04-9.43-2.81-3.04-.79-5.55-1.7-7.53-2.74-2.09-1.11-3.32-2.71-3.32-4.82,0-.93,.22-1.78,.68-2.53,.45-.73,1.11-1.31,1.93-1.76h0s.02-.01,.03-.02c0,0,.01,0,.02-.01h0c1.66-1,4.01-1.44,6.93-1.44,3.12,0,6.29,.64,9.49,1.89h0s0,0,0,0c0,0,0,0,0,0h0c3.1,1.18,5.88,3.14,8.35,5.84l13.2-13.35c-3.48-4.21-7.94-7.41-13.41-9.58Z"/>
      <polygon class="cls-1" points="458.94 121.97 458.7 122.87 458.92 122.06 458.94 121.97"/>
      <path class="cls-3" d="M479.36,102.81l-.44-.82v-.02s0,.02,0,.02l-.46-.8c-1.35,.77-3.43,1.21-6.37,1.21v1.85c3.05,0,5.5-.45,7.26-1.44Z"/>
      <polygon class="cls-3" points="478.91 101.98 478.46 101.19 478.92 102 478.91 101.98"/>
      <polygon class="cls-3" points="478.49 101.18 478.47 101.18 478.46 101.19 478.91 101.98 478.49 101.18"/>
      <path class="cls-3" d="M460.1,101.01l-.36,.84c3.79,1.61,7.91,2.4,12.35,2.4v-1.85c-4.21,0-8.08-.75-11.61-2.25,0,0,0,0,0,0l-.39,.85Z"/>
      <path class="cls-3" d="M451.28,94.82l-.67,.67c2.61,2.65,5.64,4.77,9.11,6.35l.38-.84,.36-.86s.01,0,.02,0c-3.55-1.61-6.61-3.82-9.19-6.61l-.68,.63,.66,.65Z"/>
      <polygon class="cls-3" points="450.62 94.17 449.96 93.52 450.62 94.17 450.62 94.17"/>
      <path class="cls-3" d="M436.13,108.82h0s.68-.63,.68-.63c.2,.21,.42,.42,.63,.63l13.17-13.33c-.23-.23-.46-.46-.67-.7l.68-.63-.66-.65-14.49,14.65,.66,.65h0Z"/>
      <polygon class="cls-3" points="436.13 108.82 435.47 108.17 436.13 108.82 436.13 108.82"/>
      <polygon class="cls-3" points="450.62 94.17 451.3 93.54 450.62 94.17 450.62 94.17"/>
      <path class="cls-3" d="M479.38,102.8c1.87-1.01,2.97-2.5,2.97-4.47h-1.85c0,1.13-.57,2.08-2.01,2.85l.44,.82,.46,.8Z"/>
      <path class="cls-3" d="M460.11,101h0s0,0,0,0l.39-.85s0,0,0,0c0,0-.01,0-.02,0l-.36,.86Z"/>
      <polygon class="cls-3" points="451.3 93.54 450.64 92.83 449.96 93.52 450.62 94.17 451.3 93.54"/>
      <path class="cls-3" d="M452.59,83.22l-.47,.8,.47-.8-.94,1.59c3.06,1.81,6.29,3.23,9.7,4.25l.53-1.78c-3.26-.98-6.35-2.33-9.29-4.07Z"/>
      <path class="cls-3" d="M471.33,90.11s.02,0,.03,0h0c-3-.89-6.16-1.83-9.49-2.83l-.53,1.78c3.33,1,6.5,1.94,9.49,2.83l.26-.89,.23-.9Z"/>
      <path class="cls-3" d="M444.77,76.7h.02s.79-.49,.79-.49c0,0,0,0,0,0-1.78-3.04-2.7-6.91-2.7-11.68h-1.85c0,5,.97,9.22,2.96,12.62l.8-.47h-.02Z"/>
      <path class="cls-3" d="M445.58,76.21s0,0,0,0l-.8,.47-.79,.48c1.96,3.23,4.51,5.79,7.65,7.64l.94-1.59c-2.86-1.69-5.19-4.02-7-7.01Z"/>
      <polygon class="cls-3" points="470.83 91.9 470.85 91.9 470.86 91.9 471.09 91.02 470.83 91.9"/>
      <polygon class="cls-3" points="444.79 76.69 443.99 77.16 444.77 76.7 444.79 76.69"/>
      <path class="cls-3" d="M492.58,66.71l.69-.7c-2.47-2.7-5.25-4.66-8.35-5.84l-.34,.86v.04s0-.04,0-.04l-.33,.87c3.05,1.16,5.82,3.17,8.28,6.06l.7-.6-.66-.65Z"/>
      <polygon class="cls-3" points="443.99 77.16 443.99 77.16 444 77.17 444.77 76.7 443.99 77.16"/>
      <polygon class="cls-3" points="477.95 94.64 477.98 94.65 478.01 94.67 478.42 93.84 477.95 94.64"/>
      <polygon class="cls-3" points="478.42 93.84 478.01 94.67 478.42 93.84 478.42 93.84"/>
      <path class="cls-3" d="M481.44,95.2c-.6-.9-1.47-1.61-2.55-2.16l-.47,.8h0s0,0,0,0l-.41,.83c.89,.44,1.5,.97,1.89,1.56,.39,.58,.59,1.27,.59,2.11h1.85c0-1.16-.29-2.22-.9-3.14Z"/>
      <polygon class="cls-3" points="471.09 91.02 470.86 91.9 471.1 91.01 471.09 91.02"/>
      <polygon class="cls-3" points="435.47 108.17 434.85 108.8 435.45 109.45 436.13 108.82 435.47 108.17"/>
      <path class="cls-3" d="M478.84,93.01c-1.97-1.15-4.47-2.11-7.48-2.89l-.26,.89h0s0,0,0,0l-.23,.9c2.95,.76,5.3,1.68,7.09,2.73l.47-.79,.42-.83Z"/>
      <path class="cls-3" d="M486.12,74.4l.59-1.76-.29,.88,.29-.88c-3.35-1.12-6.53-2.07-9.55-2.85l-.46,1.79c2.97,.77,6.12,1.71,9.43,2.81Z"/>
      <path class="cls-3" d="M476.69,71.59l.23-.9-.23,.9,.46-1.79c-2.96-.77-5.32-1.63-7.12-2.59l-.87,1.64c1.97,1.04,4.49,1.95,7.53,2.74Z"/>
      <path class="cls-3" d="M502.44,86.16c1.77,2.92,2.7,6.84,2.7,11.84h1.85c0-5.2-.96-9.49-2.96-12.79l-.8,.47-.79,.48Z"/>
      <path class="cls-3" d="M469.16,68.85l.87-1.64c-1.68-.89-2.34-1.96-2.34-3.18h-1.85c0,2.11,1.23,3.71,3.32,4.82Z"/>
      <polygon class="cls-3" points="504.03 85.21 504.03 85.21 504.02 85.2 503.23 85.68 504.03 85.21"/>
      <path class="cls-3" d="M502.43,86.15l.8-.47h-.02s.02,0,.02,0l.79-.48c-1.96-3.33-4.5-5.99-7.62-7.96l-.99,1.57c2.86,1.8,5.21,4.25,7.02,7.34Z"/>
      <path class="cls-3" d="M495.41,78.8l.99-1.57-.49,.78,.49-.78c-3.06-1.93-6.29-3.46-9.69-4.59l-.59,1.76c3.26,1.09,6.36,2.55,9.29,4.4Z"/>
      <path class="cls-3" d="M468.45,59.75c-.81,.45-1.47,1.03-1.93,1.76-.46,.75-.68,1.6-.68,2.53h1.85c0-.63,.14-1.13,.4-1.55,.26-.42,.67-.8,1.28-1.13l-.44-.82-.49-.79Z"/>
      <polygon class="cls-3" points="484.92 60.17 484.91 60.17 484.58 61.04 484.92 60.17 484.92 60.17"/>
      <polygon class="cls-3" points="484.57 61.07 484.26 61.9 484.58 61.04 484.57 61.07"/>
      <path class="cls-3" d="M475.43,58.28v1.85c2.87,0,5.81,.58,8.82,1.77l.34-.86,.33-.87c-3.2-1.26-6.36-1.89-9.49-1.89Z"/>
      <polygon class="cls-3" points="469.37 61.35 469.4 61.34 469.42 61.33 468.93 60.54 469.37 61.35"/>
      <path class="cls-3" d="M468.49,59.72l.44,.82h0s0,0,0,0l.49,.79c1.23-.76,3.19-1.19,6.01-1.19v-1.85c-2.92,0-5.28,.44-6.93,1.44Z"/>
      <polygon class="cls-3" points="468.93 60.54 469.42 61.33 468.93 60.54 468.93 60.54"/>
      <path class="cls-3" d="M496.5,116.08l.6,.77,.55,.69s0,0,0,0h0c6.23-4.84,9.35-11.39,9.35-19.55h-1.85c0,7.61-2.87,13.6-8.63,18.08Z"/>
      <polygon class="cls-3" points="446.12 116.82 445.64 117.61 446.12 116.82 446.12 116.82"/>
      <polygon class="cls-3" points="445.64 117.61 445.66 117.62 445.67 117.63 446.12 116.82 445.64 117.61"/>
      <path class="cls-3" d="M459.18,121.08s0,0,0,0h0c-4.48-1.2-8.67-2.89-12.6-5.07,0,0,0,0,.01,0l-.47,.79-.45,.82c4.07,2.26,8.41,4.01,13.03,5.25l.24-.9,.23-.89Z"/>
      <path class="cls-3" d="M446.12,116.82h0s.45-.81,.45-.81c0,0,0,0,.01,0-3.53-2.12-6.57-4.53-9.15-7.19l-.65,.65-.66-.65-.68,.63c2.84,3.07,6.24,5.79,10.19,8.16l.48-.79h0Z"/>
      <polygon class="cls-3" points="458.7 122.87 458.71 122.87 458.92 122.06 458.7 122.87"/>
      <path class="cls-3" d="M496.5,116.09c-5.67,4.49-13.44,6.79-23.4,6.79v1.85c10.23,0,18.45-2.36,24.55-7.19l-.54-.7-.6-.76Z"/>
      <polygon class="cls-3" points="497.1 116.85 497.64 117.55 497.65 117.54 497.1 116.85"/>
      <path class="cls-3" d="M459.18,121.08l-.24,.89-.02,.09,.02-.08-.23,.9c4.74,1.24,9.53,1.86,14.39,1.86v-1.85c-4.69,0-9.33-.6-13.91-1.8Z"/>
      <polygon class="cls-3" points="458.92 122.06 458.71 122.87 458.94 121.98 458.92 122.06"/>
      <polygon class="cls-3" points="458.94 121.97 459.18 121.08 459.18 121.08 458.94 121.97"/>
      <polygon class="cls-3" points="503.23 85.68 502.43 86.15 503.22 85.69 503.23 85.68"/>
      <polygon class="cls-3" points="497.07 116.82 496.5 116.08 496.5 116.09 497.07 116.82"/>
      <path class="cls-3" d="M493.77,41.37s0,0-.01,0c0,0,0,0,.01,0h0Z"/>
      <path class="cls-3" d="M493.24,67.36h0s.7-.6,.7-.6c-.22-.26-.45-.5-.67-.75l-.69,.7,.66,.65Z"/>
      <rect class="cls-3" x="493.24" y="67.36" width="0" height="0" transform="translate(96.83 368.5) rotate(-45)"/>
      <polygon class="cls-3" points="493.75 41.36 493.75 41.36 493.76 41.36 493.75 41.36"/>
      <path class="cls-3" d="M471.1,91.01l.26-.89s-.02,0-.03,0l-.23,.9Z"/>
      <path class="cls-3" d="M450.62,94.17h0l-.68,.63c.22,.24,.45,.47,.67,.7l.67-.67-.66-.65Z"/>
      <path class="cls-3" d="M436.13,108.82l.66,.65,.65-.65c-.2-.21-.43-.41-.63-.63l-.68,.63Z"/>
      <path class="cls-3" d="M446.12,116.81l.47-.79s0,0-.01,0c0,0,0,0-.01,0l-.45,.8Z"/>
      <polygon class="cls-3" points="444.79 76.69 445.59 76.22 445.58 76.21 445.58 76.21 444.79 76.69"/>
      <polygon class="cls-3" points="445.2 50.51 445.19 50.52 445.2 50.51 445.2 50.51"/>
      <polygon class="cls-3" points="504.03 85.21 504.03 85.21 504.03 85.21 504.03 85.21"/>
      <polygon class="cls-3" points="445.19 50.52 445.19 50.52 445.19 50.52 445.19 50.52"/>
      <polygon class="cls-3" points="504.03 85.2 504.02 85.2 504.03 85.21 504.03 85.2"/>
      <polygon class="cls-3" points="484.24 61.9 484.26 61.9 484.57 61.07 484.24 61.9"/>
      <polygon class="cls-3" points="484.91 60.17 484.92 60.17 484.91 60.17 484.91 60.17"/>
      <polygon class="cls-3" points="484.92 60.17 484.92 60.17 484.92 60.17 484.92 60.17"/>
      <path class="cls-3" d="M446.71,51.58l-.76-.53-.77-.52c-2.78,3.95-4.16,8.63-4.16,14.01h1.85c0-5.05,1.29-9.35,3.83-12.95Z"/>
      <polygon class="cls-3" points="445.95 51.05 445.96 51.05 446.72 51.57 445.95 51.05"/>
      <path class="cls-3" d="M493.4,42.24v-.02s-.33,.86-.33,.86c5.47,2.17,9.92,5.37,13.41,9.58l.59-.6,.66,.65,.73-.57c-3.77-4.79-8.67-8.38-14.69-10.77l-.36,.85v.02Z"/>
      <path class="cls-3" d="M468.45,59.75l.49,.79-.44-.82s-.01,0-.02,0c0,0-.02,.01-.03,.02Z"/>
      <path class="cls-3" d="M468.48,59.73s.01,0,.02,0h0s-.01,0-.02,0Z"/>
      <path class="cls-3" d="M468.45,59.75h0s.02-.01,.03-.02c0,0-.02,.01-.03,.02Z"/>
      <path class="cls-3" d="M445.96,51.05h0s.76,.52,.76,.52c2.56-3.73,6.19-6.68,10.94-8.84l-.77-1.69,.38,.84-.38-.84c-5.01,2.28-8.92,5.43-11.7,9.47l.76,.54h0Z"/>
      <polygon class="cls-3" points="445.2 50.51 445.19 50.52 445.19 50.52 445.96 51.05 445.2 50.51"/>
      <path class="cls-3" d="M474.43,39.48v-1.85c-6.65,0-12.51,1.13-17.53,3.41l.77,1.69c4.74-2.15,10.32-3.25,16.77-3.25Z"/>
      <path class="cls-3" d="M493.05,43.07l.36-.85,.34-.86c-5.89-2.49-12.34-3.73-19.32-3.73v1.85c6.77,0,12.97,1.2,18.62,3.59Z"/>
      <path class="cls-3" d="M493.77,41.37s0,0-.01,0c0,0,0,0,0,0l-.34,.86,.36-.85Z"/>
      <path class="cls-3" d="M506.47,52.66c.17,.21,.36,.41,.52,.62l.73-.57-.66-.65-.59,.6Z"/>
      <path class="cls-3" d="M478.84,93.01h0s0,0,.01,0c0,0,0,0-.01,0Z"/>
      <polygon class="cls-3" points="493.07 43.08 493.4 42.24 493.05 43.07 493.06 43.08 493.07 43.08"/>
      <path class="cls-3" d="M478.84,93.01l-.42,.83,.47-.8s-.03-.02-.04-.02c0,0,0,0-.01,0Z"/>
      <polygon class="cls-3" points="493.41 42.22 493.4 42.24 493.07 43.08 493.41 42.22"/>
      <path class="cls-3" d="M478.85,93.02s.03,.02,.04,.02h0s-.03-.02-.04-.02Z"/>
      <polygon class="cls-3" points="445.96 51.05 446.71 51.58 446.72 51.57 445.96 51.05"/>
      <polygon class="cls-3" points="502.44 86.16 503.22 85.69 502.43 86.15 502.44 86.15 502.44 86.16"/>
      <rect class="cls-3" x="460.1" y="101" width=".01" height="0" transform="translate(188.04 485.56) rotate(-67.1)"/>
      <polygon class="cls-3" points="460.11 101 459.72 101.84 460.1 101.01 460.11 101"/>
      <polygon class="cls-3" points="459.74 101.85 460.1 101.01 459.72 101.84 459.73 101.85 459.74 101.85"/>
      <polygon class="cls-3" points="479.38 102.8 479.38 102.8 479.37 102.81 479.38 102.8"/>
      <path class="cls-3" d="M479.38,102.8l-.46-.8,.44,.82s.01,0,.02,0c0,0,0,0,0,0Z"/>
      <path class="cls-3" d="M479.37,102.81s-.01,0-.02,0h0s0,0,.01,0Z"/>
      <polygon class="cls-3" points="459.74 101.85 460.1 101.01 460.1 101.01 459.74 101.85"/>
      <polygon class="cls-3" points="507.73 52.71 508.39 53.36 508.96 52.78 508.46 52.14 507.73 52.71"/>
      <polygon class="cls-3" points="492.54 67.96 493.19 68.73 493.9 68.01 493.24 67.36 492.54 67.96"/>
      <polygon class="cls-3" points="493.24 67.36 493.9 68.01 493.24 67.36 493.24 67.36"/>
      <path class="cls-3" d="M507,53.28c-.17-.21-.35-.41-.52-.62l-13.2,13.35c.23,.25,.45,.49,.67,.75l-.7,.6,.66,.65,14.49-14.65-.66-.65-.73,.57Z"/>
      <g>
        <path class="cls-1" d="M577.01,90.73c1.47-2.74,2.22-5.86,2.22-9.38s-.75-6.82-2.22-9.55c-1.47-2.74-3.51-4.83-6.13-6.29l.45-.81-.49,.79c-2.5-1.56-5.43-2.36-8.83-2.36s-6.4,.8-9.01,2.37l-.48-.79h0s0,0,0,0l.19,.33,.28,.48c-2.51,1.46-4.5,3.55-5.98,6.3-1.47,2.73-2.22,5.91-2.22,9.55s.69,6.66,2.06,9.39c1.48,2.74,3.52,4.89,6.15,6.46,2.62,1.57,5.56,2.37,8.85,2.37,3.52,0,6.51-.8,9-2.36l.49,.79-.48-.8c2.63-1.58,4.68-3.73,6.15-6.47Z"/>
        <path class="cls-1" d="M546.85,90.74s0,0,0,0l-.82,.44,.83-.41s0-.01,0-.02Z"/>
        <path class="cls-3" d="M546.85,90.74c-1.37-2.74-2.06-5.86-2.06-9.39s.75-6.82,2.22-9.55c1.48-2.75,3.47-4.84,5.98-6.3l-.28-.48-.19-.33-.48-.79c-2.82,1.65-5.04,3.99-6.67,7.02-1.64,3.04-2.44,6.53-2.44,10.43s.75,7.21,2.26,10.24l.83-.41,.82-.44s0,0,0,0Z"/>
        <path class="cls-3" d="M561.84,99.57c-3.28,0-6.22-.79-8.85-2.37-2.63-1.58-4.67-3.73-6.15-6.46,0,0,0,.01,0,.02l-.83,.41h0s0,0,0,0l-.82,.44c1.63,3.03,3.91,5.43,6.83,7.18,2.93,1.76,6.2,2.63,9.8,2.63,3.8,0,7.14-.86,9.97-2.63l-.48-.79-.49-.79c-2.49,1.56-5.48,2.36-9,2.36Z"/>
        <path class="cls-3" d="M578.65,70.92c-1.63-3.02-3.9-5.36-6.82-7.01l-.49,.79-.45,.81c2.62,1.47,4.66,3.55,6.13,6.29,1.47,2.73,2.22,5.91,2.22,9.55s-.75,6.65-2.22,9.38c-1.48,2.74-3.52,4.89-6.15,6.47l.48,.8,.49,.78c2.91-1.75,5.19-4.15,6.82-7.17,1.64-3.04,2.44-6.47,2.44-10.26s-.8-7.39-2.44-10.43Z"/>
        <path class="cls-3" d="M552.52,64.7l.48,.79c2.62-1.57,5.61-2.37,9.01-2.37s6.34,.8,8.83,2.36l.49-.79,.45-.81c-2.82-1.75-6.09-2.62-9.78-2.62s-7.03,.87-9.96,2.62l.47,.8h0s0,0,0,0Z"/>
      </g>
      <polygon class="cls-3" points="493.24 67.36 492.54 67.96 493.24 67.36 493.24 67.36"/>
      <g>
        <polygon class="cls-1" points="600.78 102.98 600.81 103 599.99 102.55 600.78 102.98"/>
        <polygon class="cls-1" points="586.82 117.98 586.34 117.19 586.81 117.96 586.82 117.98"/>
        <polygon class="cls-1" points="600.81 59.7 600.81 59.7 599.99 60.15 600.81 59.7"/>
        <polygon class="cls-1" points="586.82 44.72 586.79 44.76 586.34 45.51 586.82 44.72"/>
        <path class="cls-1" d="M605.04,81.35c0-7.97-1.69-15.03-5.05-21.2h0s.55-.3,.55-.3l-.55,.29c-3.25-6.18-7.8-11.05-13.65-14.63h0s.04-.06,.04-.06l-.04,.06c-5.72-3.56-12.32-5.35-19.83-5.35-5.31,0-10.16,1.08-14.58,3.24-2.06,1.01-3.93,2.19-5.64,3.54-.64,.51-1.26,1.04-1.85,1.6v-6.71h-23.62v113.2h23.29v-40.71c.59,.55,1.21,1.08,1.85,1.57,1.79,1.38,3.77,2.57,5.96,3.59,4.42,2.05,9.28,3.08,14.6,3.08,7.51,0,14.1-1.79,19.83-5.35h0c5.85-3.58,10.4-8.45,13.65-14.63h0c3.36-6.19,5.05-13.25,5.05-21.21Zm-59.83,10.26h0s0-.02,0-.02l.83-.41h0s-.82,.44-.82,.44Zm.82-.44l.82-.44s0,0,0,0c0,0,0,.01,0,.02l-.83,.41Zm6.02-27.27h0s0,0,0,0c0,0,0,0,0,0h0s.47,.8,.47,.8l-.48-.79Zm.94,1.59h0s-.28-.48-.28-.48l-.19-.32h0s.48,.79,.48,.79h-.01Zm17.86,31.72h0s0,0,0,0l.48,.79-.49-.79Zm.04-31.71h-.02s-.02-.02-.02-.02l.49-.79-.45,.81Zm.94,33.28s0,0-.01,0h0s-.48-.79-.48-.79l.49,.78h0s0,0,0,0Zm0-34.87l-.49,.79,.45-.81h0s.02,.01,.03,.02c0,0,0,0,.01,0h0Z"/>
        <path class="cls-3" d="M545.36,41.82h-.93v4.24c.6-.5,1.21-.99,1.85-1.45v-3.71h-.93v.93Z"/>
        <rect class="cls-3" x="545.36" y="39.96" width=".93" height=".93"/>
        <polygon class="cls-3" points="520.81 40.89 520.81 41.82 544.43 41.82 544.43 40.89 545.36 40.89 545.36 39.96 519.88 39.96 519.88 40.89 520.81 40.89"/>
        <rect class="cls-3" x="518.96" y="39.96" width=".93" height=".93"/>
        <path class="cls-3" d="M551.93,43.39l-.81-1.67c-1.72,.84-3.33,1.8-4.83,2.88v2.33c1.71-1.35,3.58-2.54,5.64-3.54Z"/>
        <path class="cls-3" d="M566.51,40.15v-1.85c-5.57,0-10.7,1.14-15.39,3.42l.81,1.67c4.42-2.15,9.27-3.24,14.58-3.24Z"/>
        <path class="cls-3" d="M586.33,45.5l.04-.06,.45-.73-.03,.04,.03-.04,.48-.79c-6.04-3.76-12.99-5.63-20.8-5.63v1.85c7.51,0,14.1,1.79,19.83,5.35Z"/>
        <path class="cls-3" d="M544.43,48.53c.59-.56,1.21-1.09,1.85-1.6v-2.33c-.64,.46-1.26,.95-1.85,1.45v2.48Z"/>
        <polygon class="cls-3" points="519.88 155.02 520.81 155.02 520.81 41.82 519.88 41.82 519.88 40.89 518.96 40.89 518.96 155.94 519.88 155.94 519.88 155.02"/>
        <rect class="cls-3" x="518.96" y="155.94" width=".93" height=".93"/>
        <path class="cls-3" d="M551.91,119.47l-.78,1.68c4.68,2.17,9.81,3.25,15.38,3.25v-1.85c-5.32,0-10.18-1.03-14.6-3.08Z"/>
        <path class="cls-3" d="M544.1,114.31v2.45c.6,.49,1.21,.97,1.85,1.41v-2.29c-.65-.5-1.26-1.03-1.85-1.57Z"/>
        <path class="cls-3" d="M545.95,115.88v2.29c1.59,1.12,3.32,2.11,5.18,2.98l.78-1.68c-2.19-1.01-4.17-2.21-5.96-3.59Z"/>
        <path class="cls-3" d="M586.81,117.96v.02s-.48-.79-.48-.79c-5.72,3.56-12.32,5.35-19.83,5.35v1.85c7.81,0,14.75-1.87,20.8-5.63l-.48-.79v-.02Z"/>
        <path class="cls-3" d="M544.1,155.02h.93v.93h.93v-37.77c-.64-.45-1.26-.92-1.85-1.41v38.26Z"/>
        <polygon class="cls-3" points="587.31 43.93 587.3 43.93 586.82 44.72 587.31 43.93"/>
        <polygon class="cls-3" points="544.1 155.94 544.1 155.02 520.81 155.02 520.81 155.94 519.88 155.94 519.88 156.87 545.03 156.87 545.03 155.94 544.1 155.94"/>
        <rect class="cls-3" x="545.03" y="155.94" width=".93" height=".93"/>
        <polygon class="cls-3" points="571.34 98 571.81 98.79 571.82 98.79 571.83 98.79 571.34 98"/>
        <polygon class="cls-3" points="545.21 91.61 546.03 91.17 546.03 91.17 545.21 91.61"/>
        <polygon class="cls-3" points="545.2 91.59 545.2 91.6 545.21 91.61 546.03 91.17 545.2 91.59"/>
        <polygon class="cls-3" points="552.05 63.9 552.04 63.9 552.52 64.7 552.05 63.9 552.05 63.9"/>
        <polygon class="cls-3" points="601.63 59.27 601.62 59.27 601.62 59.26 600.81 59.7 601.63 59.27"/>
        <path class="cls-3" d="M599.99,60.15c3.36,6.18,5.05,13.23,5.05,21.2h1.85c0-8.23-1.75-15.6-5.27-22.08l-.82,.43-.82,.44Z"/>
        <path class="cls-3" d="M586.82,44.72l-.48,.79c5.85,3.57,10.4,8.44,13.65,14.63l.55-.29,.27-.14h0s0,0,0,0l.81-.44c-3.41-6.47-8.18-11.58-14.32-15.33h0s0,0,0,0l-.49,.79Z"/>
        <polygon class="cls-3" points="586.82 117.98 587.3 118.77 587.31 118.77 586.82 117.98"/>
        <path class="cls-3" d="M600.78,102.98l.03,.02-.82-.43c-3.25,6.18-7.8,11.05-13.65,14.63l.48,.79,.49,.79s0,0,0,0h0c6.14-3.75,10.91-8.87,14.32-15.33l-.81-.44-.03-.02Z"/>
        <polygon class="cls-3" points="600.81 103 601.62 103.44 601.62 103.43 601.63 103.43 600.81 103"/>
        <path class="cls-3" d="M599.99,102.55l.82,.44,.82,.43c3.52-6.48,5.27-13.84,5.27-22.08h-1.85c0,7.97-1.69,15.03-5.05,21.2Z"/>
        <polygon class="cls-3" points="586.34 45.51 586.79 44.76 586.37 45.45 586.33 45.5 586.34 45.51"/>
        <polygon class="cls-3" points="599.99 60.15 600.81 59.7 600.53 59.85 599.99 60.14 599.99 60.15"/>
        <polygon class="cls-3" points="600.81 59.7 600.53 59.85 600.81 59.7 600.81 59.7"/>
        <rect class="cls-3" x="544.43" y="40.89" width=".93" height=".93"/>
        <polygon class="cls-3" points="586.82 44.72 586.37 45.45 586.79 44.76 586.82 44.72"/>
        <polygon class="cls-3" points="601.62 103.44 601.62 103.43 601.62 103.44 601.62 103.44"/>
        <rect class="cls-3" x="519.88" y="40.89" width=".93" height=".93"/>
        <polygon class="cls-3" points="601.62 59.26 601.62 59.26 601.62 59.27 601.62 59.26"/>
        <polygon class="cls-3" points="601.62 103.43 601.63 103.43 601.63 103.43 601.62 103.43"/>
        <polygon class="cls-3" points="601.63 59.27 601.62 59.27 601.63 59.27 601.63 59.27"/>
        <rect class="cls-3" x="544.1" y="155.02" width=".93" height=".93"/>
        <rect class="cls-3" x="519.88" y="155.02" width=".93" height=".93"/>
        <polygon class="cls-3" points="586.82 117.98 586.81 117.96 586.33 117.19 586.82 117.98"/>
        <polygon class="cls-3" points="586.81 117.96 586.34 117.19 586.33 117.19 586.81 117.96"/>
        <polygon class="cls-3" points="600.81 103 600.78 102.98 599.99 102.56 600.81 103"/>
        <polygon class="cls-3" points="599.99 102.56 600.78 102.98 599.99 102.55 599.99 102.56"/>
        <path class="cls-3" d="M546.84,90.73l-.82,.44,.83-.41s0-.01,0-.02c0,0,0,0,0,0Z"/>
        <polygon class="cls-3" points="552.52 64.7 553 65.49 552.52 64.7 552.52 64.7"/>
        <polygon class="cls-3" points="571.83 63.91 571.83 63.91 571.82 63.91 571.83 63.91"/>
        <path class="cls-3" d="M571.79,63.89h0s.02,.01,.03,.02c0,0-.02-.01-.03-.02Z"/>
        <polygon class="cls-3" points="552.04 63.9 552.04 63.9 552.05 63.9 552.04 63.9"/>
        <polygon class="cls-3" points="552.05 63.9 552.05 63.9 552.05 63.9 552.05 63.9"/>
        <polygon class="cls-3" points="552.71 65.02 552.99 65.5 552.99 65.5 552.71 65.02"/>
        <path class="cls-3" d="M571.79,63.89l-.45,.81,.49-.79s0,0,0,0c0,0-.02-.01-.03-.02Z"/>
        <polygon class="cls-3" points="570.85 97.21 570.84 97.21 571.34 98 570.86 97.21 570.85 97.21"/>
        <polygon class="cls-3" points="570.86 65.5 570.88 65.51 571.34 64.7 570.84 65.48 570.86 65.5"/>
        <polygon class="cls-3" points="571.81 98.8 571.82 98.79 571.81 98.79 571.81 98.8"/>
        <polygon class="cls-3" points="552.71 65.02 552.99 65.5 552.99 65.5 552.99 65.5 553 65.49 552.52 64.7 552.71 65.02"/>
        <polygon class="cls-3" points="571.82 98.79 571.83 98.79 571.83 98.79 571.82 98.79"/>
      </g>
      <g>
        <polygon class="cls-1" points="106.17 105.67 106.83 106.33 106.18 105.66 106.17 105.67"/>
        <polygon class="cls-1" points="38.74 118.29 38.39 119.15 38.75 118.29 38.74 118.29"/>
        <polygon class="cls-1" points="6.44 86.49 6.44 86.48 5.6 86.84 6.44 86.49 6.44 86.49"/>
        <polygon class="cls-1" points="18.55 19.72 17.93 19.08 17.92 19.09 18.55 19.72"/>
        <polygon class="cls-1" points="118.96 86.65 118.96 86.65 119.81 87.01 118.96 86.65 118.96 86.65"/>
        <path class="cls-3" d="M6.44,86.49c-3.06-7.32-4.59-15.19-4.59-23.62s1.53-16.41,4.59-23.62c3.06-7.22,7.32-13.5,12.78-18.85l-.07-.07-.6-.61-.63-.63s0,0,0,0h0c-5.64,5.53-10.04,12.01-13.19,19.45C1.58,45.98,0,54.1,0,62.87s1.58,16.78,4.73,24.33l.85-.36h0s.85-.36,.85-.36c0,0,0,0,0,0Z"/>
        <path class="cls-3" d="M38.06,6.92l.35,.86c7.43-3.06,15.52-4.59,24.29-4.59s16.64,1.53,23.95,4.59l.36-.86h0s.34-.86,.34-.86c-7.56-3.16-15.78-4.73-24.65-4.73s-17.32,1.57-24.99,4.73l.34,.86h0s0,0,0,0Z"/>
        <path class="cls-3" d="M106.18,105.66h0c-5.46,5.35-11.91,9.56-19.35,12.63l.35,.85,.36,.86s0,0,0,0h0c7.65-3.15,14.3-7.49,19.94-13.02l-.65-.66h0s0,0,0,0l-.66-.65s0,0,0,0Z"/>
        <path class="cls-3" d="M86.82,118.29c-7.32,3.06-15.24,4.59-23.79,4.59s-16.86-1.53-24.29-4.59c0,0,0,0,0,0l-.36,.85h0s0,0,0,0l-.35,.86c7.67,3.16,16.01,4.73,25,4.73s16.94-1.57,24.5-4.73l-.36-.86-.35-.85Z"/>
        <path class="cls-3" d="M19.39,105.5c-5.57-5.46-9.89-11.8-12.95-19.01h0s-.85,.36-.85,.36l-.86,.36c3.16,7.44,7.61,13.98,13.36,19.61,5.75,5.63,12.39,10.03,19.94,13.18l.36-.86,.35-.86c-7.33-3.06-13.78-7.33-19.35-12.79Z"/>
        <path class="cls-3" d="M18.58,19.74l.65,.66c5.46-5.46,11.85-9.67,19.17-12.62l-.35-.86-.35-.85c-7.54,3.04-14.14,7.38-19.78,13.02l.62,.64,.02,.02Z"/>
        <path class="cls-3" d="M107.31,19.09l-.66,.66-.64,.67c5.57,5.35,9.88,11.68,12.94,19l.86-.36,.85-.36c-3.15-7.54-7.6-14.08-13.35-19.61Z"/>
        <path class="cls-3" d="M106,20.4l.65-.65,.64-.67c-5.64-5.63-12.28-9.97-19.93-13.01l-.36,.85-.34,.86c7.44,2.95,13.88,7.16,19.33,12.62Z"/>
        <path class="cls-3" d="M125.4,63.03c0-8.77-1.57-16.89-4.73-24.33l-.85,.36-.86,.36c3.06,7.2,4.59,15.07,4.59,23.62s-1.53,16.3-4.59,23.62c0,0,0,0,0,0l.85,.36h0s0,0,0,0l.85,.36c3.16-7.56,4.73-15.67,4.73-24.33Z"/>
        <line class="cls-2" x1="106.83" y1="106.33" x2="106.83" y2="106.33"/>
        <path class="cls-3" d="M118.96,86.65c-3.06,7.21-7.32,13.55-12.78,19.01l.65,.66,.66,.66c5.64-5.64,10.03-12.17,13.19-19.61l-.86-.36-.85-.36h0Z"/>
      </g>
      <g>
        <path class="cls-1" d="M92.51,81.92c2.81-5.51,4.23-11.86,4.23-19.06,0-5.46-.82-10.34-2.44-14.66l.87-.33h0s0,0,0,0l-.13,.05-.74,.27c-1.62-4.44-3.95-8.21-6.96-11.33l.67-.64h0l-.68,.63c-3.01-3.23-6.61-5.64-10.81-7.26l.33-.86h0s0,0,0,0l-.36,.85c-4.09-1.72-8.68-2.59-13.79-2.59-6.85,0-12.85,1.52-18.02,4.54l-.47-.81v.02s0,0,0,0l.16,.28,.3,.52c-5.06,2.91-8.99,7.05-11.79,12.45l-.82-.43h0s.82,.43,.82,.43c-2.8,5.28-4.22,11.56-4.22,18.88,0,5.46,.82,10.4,2.44,14.83,1.63,4.44,3.89,8.28,6.8,11.51,3.01,3.12,6.62,5.54,10.83,7.27,4.21,1.73,8.86,2.59,13.97,2.59,6.85,0,12.79-1.52,17.84-4.53l.47,.8h0s0,0,0,0l-.47-.81c5.17-3.02,9.16-7.22,11.96-12.61Z"/>
        <path class="cls-1" d="M37.9,89.21s0,0-.01-.01l-.67,.64,.69-.62s0,0-.01-.01Z"/>
        <polygon class="cls-1" points="92.51 81.92 92.51 81.93 93.34 82.35 92.52 81.92 92.51 81.92"/>
        <path class="cls-3" d="M81.02,95.34l-.47-.8c-5.05,3.01-10.99,4.53-17.84,4.53-5.11,0-9.76-.87-13.97-2.59-4.21-1.73-7.82-4.15-10.83-7.27,0,0,0,0,.01,.01l-.69,.62-.67,.64c3.2,3.32,7.03,5.88,11.47,7.71,4.45,1.83,9.35,2.73,14.67,2.73,7.13,0,13.4-1.59,18.78-4.79l-.46-.79h0s0,0,0,0Z"/>
        <path class="cls-3" d="M37.9,89.21c-2.91-3.23-5.18-7.06-6.8-11.51-1.62-4.44-2.44-9.38-2.44-14.83,0-7.32,1.42-13.6,4.22-18.88l-.82-.44-.82-.43c-2.97,5.6-4.43,12.19-4.43,19.74,0,5.64,.85,10.8,2.55,15.47,1.7,4.65,4.09,8.7,7.17,12.12l.69-.62,.67-.64s0,0,.01,.01Z"/>
        <path class="cls-3" d="M98.59,62.87c0-5.64-.85-10.75-2.55-15.3l-.87,.32h0s0,0,0,0l-.87,.33c1.62,4.32,2.44,9.2,2.44,14.66,0,7.2-1.42,13.55-4.23,19.06,0,0,0,0,0,0l.82,.43h0s0,0,0,0l.83,.42c2.96-5.81,4.43-12.45,4.43-19.9Z"/>
        <path class="cls-3" d="M92.51,81.92c-2.81,5.4-6.79,9.59-11.96,12.61l.47,.81,.47,.79c5.48-3.2,9.71-7.66,12.67-13.36l-.82-.43-.82-.42s0,0,0,0Z"/>
        <path class="cls-3" d="M62.7,27c5.11,0,9.7,.87,13.79,2.59l.36-.85,.33-.86c-4.34-1.82-9.17-2.73-14.49-2.73-7.13,0-13.46,1.59-18.94,4.79l.46,.79,.47,.81c5.17-3.01,11.16-4.54,18.02-4.54Z"/>
        <path class="cls-3" d="M32.89,43.98c2.81-5.4,6.74-9.54,11.79-12.45l-.3-.52-.16-.28h0s0,0,0,0l-.46-.79c-5.37,3.09-9.54,7.49-12.51,13.19l.82,.43h0s.82,.43,.82,.43Z"/>
        <path class="cls-3" d="M76.85,28.73l-.33,.86c4.2,1.62,7.8,4.03,10.81,7.26l.68-.63h0s.67-.64,.67-.64c-3.2-3.42-7.02-5.99-11.46-7.7l-.36,.85h0s0,0,0,0Z"/>
        <path class="cls-3" d="M88.01,36.23l-.67,.64c3.01,3.12,5.33,6.89,6.96,11.33l.74-.27,.13-.05,.87-.33c-1.7-4.65-4.15-8.65-7.35-11.96l-.68,.63h0Z"/>
        <polygon class="cls-3" points="88.01 36.23 88.01 36.23 88.01 36.23 88.01 36.23"/>
        <polygon class="cls-3" points="88.01 36.23 88.01 36.23 88.01 36.23 88.01 36.23"/>
      </g>
      <g>
        <polygon class="cls-1" points="377.08 148.62 376.63 149.43 377.08 148.62 377.08 148.62"/>
        <polygon class="cls-1" points="390.6 123.99 391.39 124.41 390.57 123.97 390.6 123.99"/>
        <polygon class="cls-1" points="369.25 97.5 368.58 96.87 369.26 97.5 369.25 97.5"/>
        <polygon class="cls-1" points="390.9 97.5 390.26 98.17 390.9 97.5 390.9 97.5"/>
        <path class="cls-1" d="M390.26,98.17h-.01s-.01-.02-.01-.02c-2.83-2.94-6.15-4.38-9.99-4.38-4.08,0-7.5,1.45-10.32,4.37-2.72,2.93-4.08,6.42-4.08,10.52,0,3.77,1.25,6.86,3.73,9.34,1.63,1.63,3.35,2.71,5.15,3.26,.62,.19,1.25,.33,1.89,.4l-.93,1.73-9.69,18.04,10.71,5.93,13.03-23.82c1.99-3.75,3.28-6.74,3.92-8.98,.65-2.28,.96-4.24,.96-5.91,0-4.2-1.46-7.67-4.38-10.49Z"/>
        <path class="cls-3" d="M391.57,96.86h0s0,0-.01-.01c0,0,0,0,0,0h0c-3.16-3.26-6.94-4.92-11.3-4.92-4.58,0-8.48,1.66-11.66,4.95h0s0,.01,0,.01l.68,.63h0s-.68-.63-.68-.63c-3.05,3.28-4.58,7.23-4.58,11.79,0,4.23,1.42,7.8,4.27,10.65,1.72,1.72,3.58,2.93,5.57,3.61l-9.9,18.44-.43,.8,.8,.44,12.32,6.83,.45-.81h0s-.45,.81-.45,.81l.82,.45,.45-.82,13.49-24.64h0s0-.01,0-.01l-.79-.42-.03-.02,.82,.43c2.01-3.79,3.38-6.91,4.07-9.34,.68-2.39,1.03-4.53,1.03-6.42,0-4.67-1.64-8.63-4.92-11.8Zm-1.82,26.68l-13.03,23.82-10.71-5.93,9.69-18.04,.93-1.73c-.64-.07-1.27-.21-1.89-.4-1.8-.56-3.52-1.63-5.15-3.26-2.48-2.48-3.73-5.57-3.73-9.34,0-4.1,1.36-7.59,4.08-10.52,2.82-2.92,6.24-4.37,10.32-4.37,3.84,0,7.16,1.44,9.99,4.38h.01s.01,.02,.01,.02l.64-.67h0s-.64,.67-.64,.67c2.92,2.82,4.38,6.29,4.38,10.49,0,1.67-.31,3.63-.96,5.91-.64,2.24-1.94,5.23-3.92,8.98Z"/>
      </g>
      <polygon class="cls-3" points="130.58 39.96 129.28 39.96 129.7 41.19 130.58 40.89 130.58 39.96"/>
      <g>
        <polygon class="cls-1" points="318.93 65.53 318.26 66.17 318.92 65.53 318.93 65.53"/>
        <polygon class="cls-1" points="301.21 44.04 300.75 43.17 301.21 44.04 300.78 43.22 301.21 44.04"/>
        <polygon class="cls-1" points="301.78 63.37 302.21 64.19 301.78 63.38 301.78 63.37"/>
        <polygon class="cls-1" points="296.78 68.36 296.78 68.36 297.58 68.83 296.78 68.36 296.78 68.36"/>
        <path class="cls-1" d="M347.47,70.03c0-5.39-1.29-10.34-3.87-14.86-2.58-4.52-6.13-8.13-10.66-10.82h-.01s-.01-.01-.01-.01c-4.39-2.78-9.48-4.19-15.32-4.19s-11.53,1.3-16.38,3.89h0c-1.96,1.03-3.73,2.24-5.33,3.63-.65,.56-1.26,1.15-1.85,1.77v-7.62h-23.62V120.88h23.62v-45.2c0-.5,.03-.98,.06-1.46,.18-2.25,.77-4.31,1.79-6.14,.03-.06,.06-.12,.09-.17h0s0,0,0,0c0,0,0,0,0-.01h0c1.3-2.35,3.07-4.13,5.33-5.33h0s.02-.01,.03-.02c0,0,0,0,0,0h0c2.26-1.3,4.86-1.94,7.76-1.94,4.21,0,7.73,1.41,10.46,4.25h0s0,0,.01,.01c0,0,.01,0,.02,.01h0c2.85,2.75,4.25,6.38,4.25,10.8v45.2h23.62v-50.86Z"/>
        <polygon class="cls-3" points="296.78 68.36 296.78 68.36 296.78 68.36 296.78 68.36"/>
        <polygon class="cls-3" points="296.78 68.36 296.78 68.36 296.78 68.36 296.78 68.36"/>
        <polygon class="cls-3" points="297.58 68.83 297.59 68.82 297.59 68.81 296.78 68.36 297.58 68.83"/>
        <polygon class="cls-3" points="296.78 68.36 297.59 68.81 296.78 68.36 296.78 68.36"/>
        <polygon class="cls-3" points="296.78 68.36 297.59 68.81 296.78 68.36 296.78 68.36"/>
        <polygon class="cls-3" points="296.78 68.36 297.59 68.81 296.78 68.36 296.78 68.36"/>
        <path class="cls-3" d="M345.21,54.25c-2.74-4.8-6.51-8.62-11.3-11.48h0s0,0,0,0c0,0-.01,0-.02-.01h0c-4.71-2.98-10.15-4.46-16.29-4.46s-12.11,1.36-17.25,4.1h0c-1.6,.84-3.09,1.81-4.47,2.88v-5.32h-27.33V122.74h27.33v-47.05c0-2.64,.58-4.91,1.71-6.86l-.8-.46h0s0,0,0,0l.81,.45c1.14-2.07,2.68-3.6,4.61-4.62l-.43-.82h0s.43,.82,.43,.82h.02s.02-.02,.02-.02c1.95-1.13,4.23-1.71,6.86-1.71,3.77,0,6.79,1.25,9.16,3.71l.67-.64h0s-.67,.64-.67,.64h.01s.01,.03,.01,.03c2.46,2.35,3.71,5.48,3.71,9.49v47.05h27.33v-52.71c0-5.71-1.37-10.97-4.12-15.78Zm-50.67,22.27l.41-.83-.41,.83Zm29.31-.83c0-4.42-1.4-8.05-4.25-10.8h0s-.01-.01-.02-.02c0,0,0,0-.01-.01h0c-2.74-2.84-6.25-4.25-10.46-4.25-2.9,0-5.5,.64-7.76,1.94h0s0,0,0,0c0,0-.02,0-.03,.01h0c-2.26,1.2-4.04,2.99-5.33,5.33h0s0,0,0,.01c0,0,0,0,0,0h0c-.03,.06-.06,.12-.09,.17-1.02,1.84-1.61,3.89-1.79,6.14-.04,.48-.06,.96-.06,1.46v45.2h-23.62V41.82h23.62v7.62c.59-.62,1.21-1.21,1.85-1.77,1.6-1.39,3.37-2.6,5.33-3.63l-.46-.87,.46,.87c4.85-2.59,10.3-3.89,16.38-3.89s10.93,1.4,15.32,4.19h.01s.01,.01,.01,.01c4.53,2.69,8.08,6.3,10.66,10.82,2.58,4.52,3.87,9.46,3.87,14.86v50.86h-23.62v-45.2Z"/>
        <polygon class="cls-3" points="300.78 43.22 301.21 44.04 301.21 44.04 300.78 43.22"/>
        <line class="cls-2" x1="294.54" y1="76.52" x2="294.95" y2="75.69"/>
        <line class="cls-2" x1="294.54" y1="76.52" x2="294.95" y2="75.69"/>
        <line class="cls-2" x1="294.54" y1="76.52" x2="294.95" y2="75.69"/>
      </g>
      <g>
        <polygon class="cls-1" points="184.7 40.89 183.81 40.6 184.7 40.89 184.7 40.89"/>
        <polygon class="cls-1" points="231.65 121.81 232.53 122.11 231.65 121.81 231.65 121.81"/>
        <polygon class="cls-1" points="179.2 121.81 180.08 122.11 179.2 121.81 179.2 121.81"/>
        <polygon class="cls-1" points="221.67 87.75 220.75 90.87 219.73 87.78 204.67 41.82 185.37 41.82 170.38 87.94 169.37 91.06 168.44 87.91 154.86 41.82 131.88 41.82 159.21 120.88 178.54 120.88 194.18 75.19 195.16 72.3 196.14 75.19 211.5 120.88 230.99 120.88 258.32 41.82 235.34 41.82 221.67 87.75"/>
        <path class="cls-3" d="M259.62,39.96h-25.67l-.2,.66-13.1,44.04-14.44-44.06-.21-.64h-21.99l-.21,.64,.88,.29h0s-.88-.29-.88-.29l-14.36,44.19-13.01-44.17-.2-.66h-25.67v.93l-.88,.3,27.97,80.92,.22,.62h21.97l.21-.63-.88-.3h0s.88,.3,.88,.3l15.07-44.04,14.81,44.03,.21,.63h22.14l.22-.62-.88-.3h0s.88,.3,.88,.3l27.97-80.92,.42-1.23h-1.3Zm-28.63,80.92h-19.49l-15.37-45.69-.97-2.89-.99,2.88-15.64,45.7h-19.32l-27.33-79.07h22.98l13.58,46.1,.93,3.15,1.01-3.12,14.98-46.12h19.3l15.06,45.97,1.01,3.09,.93-3.12,13.66-45.94h22.98l-27.33,79.07Z"/>
      </g>
      <g>
        <rect class="cls-1" x="1381.48" y="1.85" width="23.62" height="119.03"/>
        <path class="cls-3" d="M1406.03,0h-26.4V122.74h27.33V0h-.93Zm-24.55,1.85h23.62V120.88h-23.62V1.85Z"/>
      </g>
      <g>
        <polygon class="cls-1" points="990.3 94.17 990.98 93.54 990.3 94.17 990.3 94.17"/>
        <polygon class="cls-1" points="985.8 116.82 985.35 117.63 985.8 116.82 985.8 116.82"/>
        <polygon class="cls-1" points="975.81 108.82 975.14 109.45 975.82 108.82 975.81 108.82"/>
        <polygon class="cls-1" points="998.61 122.03 998.39 122.87 998.63 121.98 998.61 122.03"/>
        <polygon class="cls-1" points="1010.78 91.01 1010.52 91.9 1010.78 91.02 1010.78 91.01"/>
        <polygon class="cls-1" points="1008.62 60.54 1009.06 61.35 1008.62 60.54 1008.62 60.54"/>
        <polygon class="cls-1" points="1018.6 101.98 1018.17 101.18 1018.6 101.98 1018.6 101.98"/>
        <path class="cls-1" d="M1032.96,66.01l13.2-13.35c-3.48-4.21-7.94-7.41-13.41-9.58h-.01s-.01,0-.01,0c-5.65-2.39-11.85-3.59-18.62-3.59s-12.03,1.09-16.77,3.25c-4.75,2.16-8.39,5.11-10.94,8.84h0c-2.54,3.61-3.83,7.91-3.83,12.96,0,4.76,.92,8.64,2.7,11.68,1.81,2.98,4.14,5.31,7,7.01,2.93,1.74,6.03,3.09,9.29,4.07,3.33,1,6.49,1.94,9.49,2.83h0c3.01,.78,5.51,1.74,7.48,2.89h0s0,0,.01,0c.01,0,.03,.01,.04,.02h0c1.08,.55,1.95,1.26,2.55,2.16,.61,.92,.9,1.98,.9,3.14,0,1.97-1.09,3.46-2.97,4.47h0s-.01,0-.02,0c0,0,0,0,0,0h0c-1.76,1-4.21,1.44-7.26,1.44-4.44,0-8.56-.8-12.35-2.4h-.01s-.01-.01-.01-.01c-3.47-1.58-6.51-3.7-9.11-6.35l-13.17,13.33c2.58,2.67,5.62,5.07,9.15,7.2,3.92,2.18,8.12,3.87,12.59,5.07h0c4.59,1.2,9.22,1.8,13.91,1.8,9.96,0,17.73-2.3,23.4-6.79h0c5.76-4.48,8.63-10.48,8.63-18.09,0-5-.92-8.92-2.7-11.84h0s0-.01,0-.01c-1.82-3.1-4.16-5.54-7.02-7.34-2.93-1.85-6.03-3.31-9.29-4.4-3.31-1.1-6.46-2.04-9.43-2.81-3.04-.79-5.56-1.7-7.53-2.74-2.09-1.11-3.32-2.71-3.32-4.82,0-.93,.22-1.78,.68-2.53,.45-.73,1.11-1.31,1.93-1.76h0s.02-.01,.03-.02c0,0,.01,0,.02-.01h0c1.66-1,4.01-1.44,6.93-1.44,3.12,0,6.29,.64,9.49,1.89h0s0,0,0,0c0,0,0,0,0,0h0c3.1,1.18,5.88,3.14,8.35,5.84Z"/>
        <polygon class="cls-1" points="985.64 51.05 986.4 51.58 985.64 51.05 985.64 51.05"/>
        <polygon class="cls-1" points="1042.9 85.69 1042.12 86.16 1042.9 85.69 1042.9 85.69"/>
        <polygon class="cls-1" points="1033.09 42.22 1032.73 43.07 1033.09 42.24 1033.09 42.22"/>
        <polygon class="cls-1" points="984.45 76.7 983.68 77.17 984.47 76.69 984.45 76.7"/>
        <polygon class="cls-1" points="1036.18 116.09 1036.79 116.85 1036.19 116.08 1036.76 116.82 1036.18 116.09"/>
        <polygon class="cls-1" points="999.79 100.99 999.41 101.84 999.79 101 999.79 100.99"/>
        <polygon class="cls-3" points="1018.1 93.84 1018.1 93.84 1017.64 94.64 1018.1 93.84"/>
        <polygon class="cls-3" points="1018.1 93.84 1018.1 93.84 1017.64 94.64 1018.1 93.84"/>
        <rect class="cls-3" x="1018.11" y="93.84" width="0" height="0" transform="translate(478.86 962.5) rotate(-63.43)"/>
        <rect class="cls-3" x="1018.11" y="93.84" width="0" height="0" transform="translate(478.86 962.5) rotate(-63.43)"/>
        <rect class="cls-3" x="1018.11" y="93.84" width="0" height="0" transform="translate(478.86 962.5) rotate(-63.43)"/>
        <path class="cls-3" d="M1023.93,61.9h.01c3.05,1.16,5.82,3.17,8.28,6.07l.65,.77,.71-.72,14.49-14.65,.58-.58-.51-.64c-3.77-4.79-8.67-8.38-14.69-10.77h0s0,0-.01,0c0,0,0,0,0,0h0c-5.89-2.49-12.34-3.73-19.32-3.73s-12.51,1.13-17.53,3.41c-5.01,2.28-8.92,5.43-11.7,9.47h0s0,0,0,0c0,0,0,0,0,0h0c-2.78,3.95-4.16,8.63-4.16,14.01,0,5,.97,9.22,2.96,12.62h0s0,.01,0,.01l.77-.47h.02s-.79,.47-.79,.47c1.96,3.23,4.51,5.79,7.65,7.64,3.06,1.81,6.3,3.23,9.7,4.25,3.33,1,6.5,1.94,9.49,2.83l.26-.89h0s-.26,.89-.26,.89h.02s.02,0,.02,0c2.94,.76,5.3,1.68,7.09,2.73l.47-.79h0s0,0,0,0h0s-.47,.8-.47,.8l.03,.02h.03c.89,.46,1.5,.99,1.89,1.57,.39,.58,.59,1.27,.59,2.11,0,1.13-.57,2.08-2.01,2.85l.43,.8h0s-.42-.8-.42-.8h-.01s-.01,.01-.01,.01c-1.35,.77-3.43,1.21-6.37,1.21-4.21,0-8.08-.75-11.62-2.25-3.55-1.61-6.61-3.82-9.18-6.61l-.68,.63h0l.68-.63-.66-.71-.68,.69-14.49,14.65-.62,.63,.6,.65,.68-.63h0s-.68,.63-.68,.63c2.84,3.07,6.24,5.79,10.19,8.16h.01s.01,.02,.01,.02l.45-.81h0s-.45,.81-.45,.81c4.07,2.26,8.41,4.01,13.03,5.25h0s.22-.84,.22-.84v-.05s-.22,.89-.22,.89c4.74,1.24,9.53,1.86,14.39,1.86,10.23,0,18.45-2.36,24.55-7.19h0c6.23-4.84,9.35-11.39,9.35-19.55,0-5.2-.96-9.49-2.96-12.79h0c-1.96-3.34-4.5-6-7.63-7.98-3.06-1.93-6.29-3.46-9.69-4.59-3.35-1.12-6.53-2.07-9.55-2.85-2.96-.77-5.32-1.63-7.12-2.59-1.68-.89-2.34-1.96-2.34-3.18,0-.63,.14-1.13,.4-1.55,.26-.42,.67-.8,1.27-1.13l-.44-.82h0s.44,.82,.44,.82h.02s.02-.03,.02-.03c1.23-.76,3.19-1.19,6.01-1.19s5.81,.58,8.82,1.77l.34-.86v.04s-.34,.83-.34,.83Zm.67-1.73s0,0,0,0h0c-3.2-1.26-6.36-1.89-9.49-1.89-2.92,0-5.28,.44-6.93,1.44h0s-.01,0-.02,0c0,0-.02,.01-.03,.02h0c-.81,.45-1.47,1.03-1.93,1.76-.46,.75-.68,1.6-.68,2.53,0,2.11,1.23,3.71,3.32,4.82,1.97,1.04,4.49,1.95,7.53,2.74,2.97,.77,6.12,1.71,9.43,2.81,3.26,1.09,6.35,2.55,9.29,4.4,2.86,1.8,5.21,4.25,7.02,7.34h0s0,.01,0,.01l.78-.47h0s-.78,.47-.78,.47c1.77,2.92,2.7,6.84,2.7,11.84,0,7.61-2.88,13.6-8.63,18.08l.6,.77-.6-.76c-5.67,4.49-13.44,6.79-23.4,6.79-4.69,0-9.33-.6-13.91-1.8h0c-4.47-1.2-8.67-2.89-12.59-5.07-3.53-2.12-6.57-4.53-9.15-7.2l13.17-13.33c2.61,2.65,5.64,4.77,9.11,6.35l.38-.85h0s-.38,.85-.38,.85h.01s.01,.01,.01,.01c3.79,1.61,7.91,2.4,12.35,2.4,3.05,0,5.5-.45,7.26-1.44h0s0,0,0,0c0,0,.01,0,.02,0h0c1.87-1.01,2.97-2.5,2.97-4.47,0-1.16-.29-2.22-.9-3.14-.6-.9-1.47-1.61-2.55-2.16h0s-.03-.02-.04-.02c0,0,0,0-.01,0h0c-1.97-1.15-4.47-2.11-7.48-2.89h0c-3-.89-6.16-1.83-9.49-2.83-3.26-.98-6.35-2.33-9.29-4.07-2.86-1.69-5.19-4.02-7-7.01-1.78-3.04-2.7-6.91-2.7-11.68,0-5.05,1.29-9.35,3.83-12.95l-.76-.53h0s.76,.53,.76,.53h0c2.56-3.74,6.19-6.69,10.94-8.85,4.74-2.15,10.32-3.25,16.77-3.25,6.77,0,12.97,1.2,18.62,3.59l.36-.85v.02s-.36,.84-.36,.84h.01s.01,0,.01,0c5.47,2.17,9.92,5.37,13.41,9.58l-13.2,13.35c-2.47-2.7-5.25-4.66-8.35-5.84h0s0,0,0,0Z"/>
        <polygon class="cls-3" points="1036.76 116.82 1036.19 116.08 1036.18 116.09 1036.76 116.82"/>
      </g>
      <g>
        <polygon class="cls-1" points="1212.51 120.46 1212.83 121.16 1212.45 120.3 1212.51 120.46"/>
        <polygon class="cls-1" points="1210.12 68.36 1210.78 69.02 1210.12 68.36 1210.12 68.36"/>
        <polygon class="cls-1" points="1203.11 64.56 1203.46 63.7 1203.13 64.56 1203.56 63.45 1203.11 64.56"/>
        <polygon class="cls-1" points="1185.14 64.7 1185.6 65.51 1185.27 64.92 1185.14 64.7"/>
        <polygon class="cls-1" points="1156.01 59.7 1156.01 59.7 1156.01 59.71 1155.22 59.22 1156 59.7 1156.01 59.7"/>
        <path class="cls-1" d="M1204.18,99.68h-.01c-2.69,1.18-5.77,1.75-9.2,1.75-3.7,0-7.08-.87-10.12-2.62-3.03-1.75-5.42-4.14-7.17-7.17h0s-.01-.02-.01-.02c-1.64-3.04-2.44-6.53-2.44-10.43s.8-7.34,2.45-10.28h0c1.75-3.03,4.08-5.37,7-7.01h0s0,0,0,0c0,0,0,0,0,0h0c3.05-1.75,6.47-2.62,10.28-2.62,3.32,0,6.26,.51,8.83,1.56h0c2.39,.94,4.49,2.36,6.32,4.22l15.01-15.01c-3.87-3.91-8.26-6.85-13.18-8.8h-.01s-.01,0-.01,0c-5.09-2.17-10.74-3.26-16.96-3.26-8.3,0-15.75,1.8-22.37,5.38-6.63,3.59-11.89,8.53-15.8,14.83h0c-3.79,6.17-5.69,13.21-5.69,21.16s1.9,14.88,5.69,21.17c3.8,6.29,9,11.23,15.63,14.82,6.63,3.58,14.02,5.38,22.21,5.38,6.43,0,12.25-1.09,17.44-3.25h0c4.95-2.17,9.41-5.28,13.39-9.31l-14.85-15c-1.83,1.87-3.97,3.39-6.44,4.52Z"/>
        <polygon class="cls-1" points="1178.48 91.17 1177.67 91.61 1178.41 91.21 1178.48 91.17"/>
        <polygon class="cls-3" points="1155.22 59.22 1155.22 59.22 1156 59.7 1155.22 59.22"/>
        <polygon class="cls-3" points="1156 59.7 1156.01 59.7 1156.01 59.7 1156 59.7"/>
        <polygon class="cls-3" points="1156 59.7 1156.01 59.7 1156.01 59.7 1156 59.7"/>
        <polygon class="cls-3" points="1156 59.7 1155.22 59.22 1156.01 59.7 1156 59.7"/>
        <polygon class="cls-3" points="1156 59.7 1155.22 59.22 1156.01 59.7 1156 59.7"/>
        <polygon class="cls-3" points="1156 59.7 1155.22 59.22 1156.01 59.7 1156 59.7"/>
        <path class="cls-3" d="M1227.43,109.5l-16.15-16.32-.69-.7-.66,.73c-1.8,2.01-3.97,3.6-6.52,4.77-2.42,1.05-5.22,1.58-8.44,1.58-3.4,0-6.46-.8-9.19-2.37-2.75-1.58-4.91-3.74-6.49-6.49h0c-1.46-2.73-2.21-5.89-2.21-9.53s.75-6.76,2.22-9.37h0c1.59-2.74,3.69-4.84,6.3-6.3l-.45-.81,.13,.22,.33,.59h0c2.73-1.58,5.84-2.38,9.36-2.38,3.13,0,5.83,.48,8.14,1.43l.45-1.11-.43,1.11c2.41,.94,4.51,2.41,6.3,4.42l.66,.73,.69-.69-.66-.66h0s.66,.66,.66,.66l16.32-16.32,.63-.64-.62-.65c-4.19-4.42-9.02-7.72-14.48-9.88h0c-5.33-2.27-11.23-3.4-17.66-3.4-8.57,0-16.33,1.86-23.25,5.61-6.91,3.74-12.42,8.9-16.5,15.48l.8,.49h0s-.79-.49-.79-.49c-3.98,6.49-5.97,13.87-5.97,22.13s1.99,15.53,5.97,22.12c3.97,6.58,9.42,11.75,16.33,15.49,6.92,3.74,14.62,5.61,23.09,5.61,6.65,0,12.72-1.13,18.17-3.4h.01s.01,0,.01,0l-.31-.7-.06-.15,.38,.86c5.44-2.38,10.32-5.84,14.62-10.37l.62-.65-.64-.64Zm-15.35,9.96h0c-5.2,2.16-11.01,3.25-17.44,3.25-8.19,0-15.58-1.8-22.21-5.38-6.63-3.59-11.83-8.52-15.63-14.82-3.79-6.28-5.69-13.33-5.69-21.17s1.9-14.99,5.69-21.16h0c3.91-6.3,9.17-11.24,15.8-14.82,6.62-3.58,14.07-5.38,22.37-5.38,6.22,0,11.87,1.09,16.96,3.26h.01s.01,0,.01,0l.34-.86h0s0,0,0,0h0s0,0,0,0l-.34,.86c4.92,1.95,9.31,4.89,13.18,8.8l-15.01,15.01c-1.83-1.85-3.93-3.28-6.32-4.22h0c-2.57-1.05-5.51-1.56-8.83-1.56-3.81,0-7.23,.87-10.28,2.62h0s0,0,0,0c0,0,0,0,0,0h0c-2.92,1.64-5.25,3.98-7,7h0c-1.65,2.95-2.45,6.38-2.45,10.29s.8,7.39,2.44,10.43l.82-.44-.07,.04-.75,.4h.01v.02c1.75,3.03,4.14,5.42,7.17,7.17,3.04,1.75,6.42,2.62,10.12,2.62,3.43,0,6.51-.57,9.2-1.74h0s.01,0,.01,0c2.47-1.13,4.61-2.65,6.44-4.52l14.85,15c-3.98,4.04-8.44,7.15-13.39,9.31Z"/>
        <polygon class="cls-3" points="1203.11 64.56 1203.12 64.56 1203.13 64.56 1203.46 63.7 1203.11 64.56"/>
        <polygon class="cls-3" points="1212.29 42.39 1211.95 43.25 1212.29 42.39 1212.29 42.39"/>
        <polygon class="cls-3" points="1212.29 42.39 1211.95 43.25 1212.29 42.39 1212.29 42.39"/>
        <polygon class="cls-3" points="1212.29 42.39 1211.95 43.25 1212.29 42.39 1212.29 42.39"/>
        <polygon class="cls-3" points="1212.29 42.39 1212.29 42.39 1212.29 42.39 1212.29 42.39"/>
        <polygon class="cls-3" points="1212.29 42.39 1212.29 42.39 1212.29 42.39 1212.29 42.39"/>
        <polygon class="cls-3" points="1212.29 42.39 1212.29 42.39 1212.29 42.39 1212.29 42.39"/>
      </g>
      <g>
        <polygon class="cls-1" points="1240.29 5.1 1240.94 5.76 1240.27 5.11 1241.05 5.87 1240.29 5.1"/>
        <polygon class="cls-1" points="1240.89 25.79 1240.29 26.39 1240.94 25.74 1240.89 25.79"/>
        <polygon class="cls-1" points="1260.76 25.74 1261.44 26.36 1260.76 25.74 1260.76 25.74"/>
        <path class="cls-1" d="M1250.93,2.69c-3.76,0-6.85,1.25-9.33,3.72h0c-2.36,2.47-3.56,5.56-3.56,9.34s1.19,6.76,3.59,9.36c2.48,2.46,5.56,3.7,9.3,3.7s6.8-1.25,9.16-3.71h0c2.38-2.59,3.57-5.69,3.57-9.35s-1.2-6.87-3.57-9.35c-2.36-2.47-5.39-3.71-9.16-3.71Z"/>
        <polygon class="cls-3" points="1240.29 5.1 1240.28 5.11 1240.27 5.11 1240.94 5.76 1240.29 5.1"/>
        <path class="cls-3" d="M1261.43,5.11c-2.75-2.86-6.27-4.28-10.5-4.28s-7.79,1.42-10.64,4.27l.77,.77-.79-.75c-2.73,2.85-4.08,6.42-4.08,10.63s1.36,7.67,4.07,10.62h.01s.02,.03,.02,.03l.6-.61,.06-.05-.66,.66c2.85,2.85,6.42,4.27,10.64,4.27s7.75-1.42,10.5-4.28h0s.01-.01,.01-.01l-.68-.63h0s.68,.63,.68,.63c2.72-2.95,4.07-6.51,4.07-10.62s-1.35-7.78-4.08-10.63Zm-1.34,19.98h0c-2.36,2.46-5.39,3.71-9.16,3.71s-6.83-1.24-9.3-3.7c-2.4-2.6-3.59-5.7-3.59-9.36s1.2-6.86,3.56-9.34h0c2.48-2.48,5.57-3.72,9.33-3.72s6.8,1.25,9.16,3.71c2.37,2.48,3.57,5.57,3.57,9.35s-1.19,6.75-3.57,9.35Z"/>
      </g>
      <g>
        <polygon class="cls-1" points="1137.26 59.54 1136.2 60.18 1137 59.7 1137.26 59.54"/>
        <polygon class="cls-1" points="1108.2 98.18 1108.67 98.96 1108.19 98.17 1108.2 98.18"/>
        <polygon class="cls-1" points="1075.9 44.75 1076.34 45.52 1075.9 44.75 1075.9 44.75"/>
        <polygon class="cls-1" points="1089.04 98.17 1088.56 98.96 1089.04 98.17 1089.04 98.17"/>
        <polygon class="cls-1" points="1075.89 118.15 1075.89 118.15 1075.89 118.15 1075.45 118.96 1075.89 118.15 1075.89 118.15"/>
        <path class="cls-1" d="M1136.2,60.18c-3.8-6.3-8.95-11.23-15.47-14.82-6.51-3.58-13.9-5.38-22.2-5.38s-15.68,1.85-22.19,5.54h-.01c-6.52,3.59-11.68,8.48-15.47,14.66-3.79,6.17-5.69,13.16-5.69,20.99s1.9,14.88,5.69,21.17c3.8,6.3,8.95,11.29,15.47,14.99,6.62,3.58,14.02,5.38,22.2,5.38s15.69-1.8,22.19-5.38c6.53-3.7,11.67-8.69,15.47-14.99,3.8-6.28,5.7-13.33,5.7-21.17s-1.9-14.82-5.69-20.99h-.01Zm-20.85,31.57c-1.52,3.04-3.75,5.45-6.68,7.21h-.01s-.01,.01-.01,.01c-2.93,1.64-6.31,2.45-10.11,2.45s-7.02-.81-9.94-2.45h-.01s-.01-.01-.01-.01c-2.92-1.75-5.2-4.15-6.83-7.18h0s0-.01,0-.01c-1.63-3.14-2.43-6.62-2.43-10.42s.8-7.39,2.44-10.43c1.63-3.03,3.91-5.37,6.83-7.02h0s0,0,.01,0c0,0,0,0,.01,0h0c2.93-1.75,6.25-2.62,9.94-2.62s7.12,.86,9.94,2.62h0s.02,.01,.03,.02c0,0,0,0,0,0h0c2.91,1.64,5.19,3.98,6.82,7.01h0c1.64,2.93,2.44,6.37,2.44,10.26s-.8,7.43-2.43,10.57h0Z"/>
        <path class="cls-1" d="M1113.7,71.81h0c-1.47-2.74-3.51-4.83-6.13-6.3h-.02s-.02-.02-.02-.02c-2.49-1.56-5.48-2.36-9-2.36s-6.4,.8-9.01,2.37h-.01s-.01,.01-.01,.01c-2.62,1.47-4.66,3.55-6.13,6.29-1.47,2.73-2.22,5.91-2.22,9.55s.75,6.7,2.22,9.56c1.47,2.74,3.52,4.88,6.14,6.46,2.62,1.46,5.62,2.21,9.02,2.21s6.58-.75,9.19-2.21c2.62-1.57,4.6-3.72,5.96-6.44h0c1.48-2.86,2.23-6.1,2.23-9.74s-.75-6.76-2.21-9.37h0Z"/>
        <polygon class="cls-1" points="1107.57 65.51 1108.02 64.7 1107.53 65.48 1108.02 64.7 1107.57 65.51"/>
        <path class="cls-3" d="M1115.33,70.92h0c-1.63-3.02-3.9-5.37-6.82-7.01h0s0,0,0,0c0,0-.02-.01-.03-.02h0c-2.83-1.75-6.15-2.62-9.94-2.62s-7.02,.87-9.94,2.62h0s0,0-.01,0c0,0,0,0-.01,0h0c-2.92,1.64-5.2,3.99-6.83,7.02-1.64,3.04-2.44,6.53-2.44,10.43s.81,7.28,2.43,10.42h0s0,.01,0,.01c1.63,3.03,3.91,5.43,6.83,7.18l.48-.79h0s-.48,.79-.48,.79h.01s.01,.01,.01,.01c2.93,1.64,6.25,2.45,9.94,2.45s7.18-.81,10.11-2.45h.01s.01-.01,.01-.01l-.47-.78h0s.48,.78,.48,.78c2.93-1.76,5.16-4.16,6.68-7.21h0c1.63-3.14,2.43-6.67,2.43-10.57s-.8-7.33-2.44-10.26Zm-1.64,19.99h0c-1.36,2.74-3.35,4.88-5.96,6.45-2.61,1.46-5.67,2.21-9.19,2.21s-6.4-.74-9.02-2.21c-2.62-1.58-4.67-3.72-6.14-6.46-1.48-2.85-2.22-6.03-2.22-9.56s.75-6.82,2.22-9.55c1.47-2.74,3.51-4.83,6.13-6.29l-.45-.81h0s.45,.81,.45,.81h.01s.01-.01,.01-.01c2.62-1.57,5.61-2.37,9.01-2.37s6.51,.8,9,2.36l.49-.79-.45,.81c2.62,1.47,4.66,3.55,6.13,6.29h0s0,.01,0,.01c1.46,2.61,2.21,5.73,2.21,9.37s-.75,6.88-2.23,9.73Z"/>
        <polygon class="cls-3" points="1089.04 64.7 1089.04 64.7 1089.49 65.51 1089.04 64.7"/>
        <polygon class="cls-3" points="1089.04 64.7 1089.04 64.7 1089.49 65.51 1089.04 64.7"/>
        <line class="cls-2" x1="1089.04" y1="64.7" x2="1089.04" y2="64.7"/>
        <line class="cls-2" x1="1089.04" y1="64.7" x2="1089.04" y2="64.7"/>
        <polygon class="cls-3" points="1107.57 65.51 1108.02 64.7 1107.53 65.48 1107.55 65.5 1107.57 65.51"/>
        <polygon class="cls-3" points="1075.43 118.95 1075.44 118.96 1075.45 118.96 1075.89 118.15 1075.43 118.95"/>
        <polygon class="cls-3" points="1075.89 118.15 1075.89 118.15 1075.89 118.15 1075.89 118.15"/>
        <polygon class="cls-3" points="1075.89 118.15 1075.89 118.15 1075.89 118.15 1075.89 118.15"/>
        <polygon class="cls-3" points="1075.89 118.15 1075.43 118.95 1075.89 118.15 1075.89 118.15"/>
        <polygon class="cls-3" points="1075.89 118.15 1075.43 118.95 1075.89 118.15 1075.89 118.15"/>
        <polygon class="cls-3" points="1075.89 118.15 1075.43 118.95 1075.89 118.15 1075.89 118.15"/>
        <path class="cls-3" d="M1137.79,59.22h0c-3.97-6.58-9.36-11.74-16.16-15.48-6.82-3.75-14.52-5.61-23.1-5.61s-16.29,1.92-23.1,5.78h0c-6.79,3.74-12.18,8.84-16.15,15.31-3.98,6.48-5.97,13.81-5.97,21.96s1.98,15.53,5.96,22.12c3.97,6.58,9.36,11.8,16.15,15.65l.46-.81h0s-.44,.81-.44,.81c6.92,3.74,14.62,5.61,23.09,5.61s16.28-1.86,23.1-5.61h0c6.79-3.86,12.18-9.08,16.15-15.65,3.98-6.59,5.96-13.97,5.96-22.12s-1.98-15.48-5.96-21.96Zm-1.59,43.13c-3.8,6.3-8.95,11.29-15.47,14.99-6.5,3.58-13.9,5.38-22.19,5.38s-15.57-1.8-22.2-5.38c-6.52-3.7-11.67-8.69-15.47-14.99-3.79-6.28-5.69-13.33-5.69-21.17s1.9-14.82,5.69-20.99c3.8-6.19,8.95-11.07,15.47-14.66h.01s-.44-.78-.44-.78h0s.44,.78,.44,.78c6.51-3.69,13.9-5.54,22.19-5.54s15.69,1.8,22.2,5.38c6.52,3.59,11.67,8.52,15.47,14.82l1.06-.64-.26,.16h0s-.79,.48-.79,.48c3.79,6.17,5.69,13.16,5.69,20.99s-1.9,14.88-5.7,21.17Z"/>
        <polygon class="cls-3" points="1137 59.7 1136.2 60.18 1136.21 60.19 1137 59.7"/>
        <polygon class="cls-3" points="1137 59.7 1137 59.7 1136.21 60.19 1137 59.7"/>
        <polygon class="cls-3" points="1137 59.7 1137 59.7 1136.21 60.19 1137 59.7"/>
      </g>
      <g>
        <rect class="cls-1" x="1239.04" y="41.82" width="23.62" height="79.07"/>
        <path class="cls-3" d="M1263.59,39.96h-26.4V122.74h27.32V39.96h-.92Zm-24.55,1.85h23.62V120.88h-23.62V41.82Z"/>
      </g>
      <g>
        <polygon class="cls-1" points="697.5 84.18 697.5 84.18 696.58 84.06 697.5 84.18"/>
        <polygon class="cls-1" points="692.51 58.54 691.7 58.99 692.5 58.54 692.51 58.54"/>
        <polygon class="cls-1" points="640.06 93.5 639.22 93.91 640.06 93.5 640.06 93.5"/>
        <polygon class="cls-1" points="669.53 102 669.91 102.84 669.53 102 669.53 102"/>
        <polygon class="cls-1" points="696.67 89.68 696.67 90.6 696.67 89.68 696.67 89.68"/>
        <polygon class="cls-1" points="619.2 59.67 618.45 59.23 619.2 59.68 619.2 59.67"/>
        <polygon class="cls-1" points="678.02 95.67 677.33 95.06 678.02 95.67 678.02 95.67"/>
        <polygon class="cls-1" points="635.39 118.32 634.97 119.14 635.4 118.3 635.39 118.32"/>
        <polygon class="cls-1" points="646.94 102.14 647.39 101.32 646.9 102.12 647.38 101.33 646.94 102.14"/>
        <polygon class="cls-1" points="646.74 61.4 647.21 62.15 646.72 61.37 646.74 61.4"/>
        <path class="cls-1" d="M691.71,59h0c-3.36-5.97-8.01-10.62-13.97-13.98-5.95-3.35-12.84-5.04-20.69-5.04s-15.3,1.8-21.69,5.38c-6.41,3.58-11.51,8.52-15.31,14.82h0c-3.68,6.17-5.53,13.22-5.53,21.17s1.9,15.05,5.7,21.33c3.8,6.29,9,11.23,15.63,14.81,6.73,3.47,14.4,5.22,23.04,5.22,6.66,0,12.76-1.15,18.3-3.43,5.26-2.17,9.77-5.37,13.56-9.6l-12.68-12.68c-2.37,2.51-5.08,4.47-8.14,5.84h-.01s-.01,.01-.01,.01c-3.35,1.39-7.08,2.07-11.18,2.07-4.46,0-8.39-.92-11.77-2.78h-.02s-.02-.02-.02-.02c-3.26-1.98-5.81-4.71-7.66-8.18v-.02s-.02-.02-.02-.02c-.49-1-.89-2.06-1.24-3.17-.19-.6-.36-1.22-.5-1.85h1.9s56.53-.14,56.53-.14c.35-1.77,.58-3.32,.67-4.64v-.03s0-.03,0-.03c.22-1.63,.32-3.14,.32-4.54,0-7.74-1.74-14.57-5.2-20.51Zm-18.42,14.15l-33.9,.1h-1.9c.15-.63,.31-1.25,.5-1.85,.3-.97,.66-1.89,1.07-2.76h0s0-.02,0-.02c1.73-3.47,4.12-6.15,7.16-8.03h0s0,0,0,0c0,0,0,0,0,0h0c3.16-1.99,6.83-2.97,10.97-2.97,3.89,0,7.23,.86,9.96,2.62h0s0,0,.01,0c0,0,.02,.01,.03,.02h0c2.83,1.66,4.94,4.14,6.33,7.39h0s0,0,0,0c0,0,0,0,0,0h0c.49,1.11,.9,2.32,1.23,3.63,.15,.6,.28,1.21,.4,1.85h-1.89Z"/>
        <path class="cls-1" d="M671.84,68.39l.83-.36h.02s-.85,.36-.85,.36c-1.26-2.94-3.13-5.11-5.61-6.56h-.02s-.02-.02-.02-.02c-2.37-1.55-5.35-2.35-8.99-2.35-3.84,0-7.16,.91-10,2.69h0s0,0,0,0c-2.72,1.67-4.88,4.09-6.48,7.27-.29,.62-.55,1.28-.78,1.96l32.91-.09c-.28-1.04-.62-2.02-1.01-2.9h0Z"/>
        <polygon class="cls-1" points="639.88 69.02 639.05 68.64 639.89 69.03 639.88 69.02"/>
        <polygon class="cls-3" points="646.94 102.14 647.38 101.33 646.9 102.12 646.92 102.13 646.94 102.14"/>
        <path class="cls-3" d="M693.31,58.08h0s0,0,0,0c0,0,0,0,0,0h0c-3.52-6.25-8.42-11.14-14.67-14.66-6.26-3.53-13.47-5.28-21.6-5.28s-15.9,1.87-22.6,5.61c-6.69,3.74-12.02,8.91-15.99,15.48h0s.75,.45,.75,.45h0s-.75-.45-.75-.45c-3.87,6.48-5.79,13.87-5.79,22.12s1.98,15.7,5.96,22.29c3.97,6.58,9.42,11.75,16.34,15.49h0s0,0,0,0l.42-.82h0s-.43,.82-.43,.82c7.03,3.63,15.01,5.43,23.9,5.43,6.88,0,13.22-1.18,19-3.57,5.8-2.39,10.75-5.97,14.84-10.74l.56-.65-.61-.61-13.99-13.99-.7-.7-.65,.74,.7,.61h0s-.7-.61-.7-.61c-2.36,2.68-5.07,4.7-8.16,6.09-3.09,1.28-6.57,1.92-10.46,1.92-4.19,0-7.8-.86-10.86-2.54-2.95-1.79-5.27-4.27-6.96-7.45-.36-.75-.67-1.53-.95-2.34l56.74-.14v-.93s0,0,0,0v.93s.75,0,.75,0l.15-.73c.44-2.11,.73-3.97,.84-5.56h0c.23-1.7,.34-3.29,.34-4.78,0-8.02-1.81-15.17-5.45-21.43Zm4.19,26.1l-.92-.12v.03s0,.03,0,.03c-.09,1.32-.32,2.87-.67,4.64l-56.53,.13h-1.9c.15,.64,.32,1.26,.5,1.86,.35,1.1,.76,2.16,1.24,3.17l.84-.4h0s-.83,.4-.83,.4v.02s.02,.02,.02,.02c1.85,3.47,4.41,6.21,7.66,8.18l.49-.8-.45,.82c3.38,1.86,7.31,2.78,11.77,2.78,4.1,0,7.83-.68,11.18-2.07h.01s.01-.01,.01-.01l-.38-.84h0s.38,.84,.38,.84c3.06-1.37,5.77-3.32,8.14-5.84l12.68,12.68c-3.79,4.23-8.3,7.44-13.56,9.6-5.54,2.28-11.63,3.43-18.3,3.43-8.64,0-16.31-1.75-23.04-5.22-6.63-3.59-11.83-8.52-15.63-14.81-3.79-6.28-5.7-13.39-5.7-21.33s1.85-15,5.53-21.17h0c3.8-6.3,8.9-11.23,15.31-14.82,6.4-3.58,13.62-5.38,21.69-5.38s14.74,1.69,20.69,5.04c5.96,3.36,10.61,8.01,13.97,13.97l.81-.46h0s-.8,.46-.8,.46h0c3.46,5.96,5.2,12.79,5.2,20.52,0,1.4-.11,2.91-.32,4.54l.92,.12h0Z"/>
        <path class="cls-3" d="M673.54,67.66h0s0,0,0,0c0,0,0,0,0,0h0c-1.4-3.25-3.51-5.73-6.33-7.39h0s-.02-.01-.03-.02c0,0,0,0-.01,0h0c-2.73-1.77-6.07-2.62-9.96-2.62-4.14,0-7.81,.98-10.97,2.97h0s0,0,0,0c0,0,0,0,0,0h0c-3.04,1.88-5.43,4.56-7.16,8.03h0s0,.02,0,.02l.83,.39h0s-.84-.39-.84-.39c-.41,.88-.76,1.8-1.07,2.76-.19,.6-.35,1.22-.5,1.85h1.9s33.9-.1,33.9-.1h1.89c-.12-.64-.25-1.26-.4-1.86-.33-1.31-.73-2.52-1.23-3.63Zm-33.6,3.73c.23-.68,.49-1.34,.78-1.96,1.6-3.19,3.76-5.6,6.48-7.27h0s0,0,0,0l-.47-.75-.02-.03,.49,.78c2.83-1.78,6.15-2.69,10-2.69,3.64,0,6.61,.8,8.99,2.35h.02s.02,.02,.02,.02c2.48,1.44,4.35,3.61,5.61,6.56l.85-.37h-.02s-.83,.37-.83,.37h0c.39,.89,.72,1.86,1.01,2.91l-32.91,.09Z"/>
      </g>
      <g>
        <polygon class="cls-1" points="916.77 148.62 916.32 149.43 916.77 148.62 916.77 148.62"/>
        <polygon class="cls-1" points="908.94 97.5 908.26 96.87 908.94 97.5 908.94 97.5"/>
        <polygon class="cls-1" points="930.28 123.99 931.07 124.41 930.25 123.98 930.28 123.99"/>
        <path class="cls-1" d="M929.94,98.17h-.01s-.01-.02-.01-.02c-2.83-2.94-6.15-4.38-9.99-4.38-4.08,0-7.5,1.45-10.32,4.37-2.72,2.93-4.08,6.42-4.08,10.52,0,3.77,1.25,6.86,3.73,9.34,1.63,1.63,3.35,2.71,5.15,3.26,.62,.19,1.25,.33,1.89,.4l-.93,1.73-9.69,18.04,10.71,5.93,13.03-23.81c1.99-3.75,3.29-6.74,3.92-8.98,.65-2.28,.96-4.24,.96-5.91,0-4.2-1.46-7.67-4.38-10.49Z"/>
        <polygon class="cls-1" points="930.59 97.5 929.94 98.17 930.59 97.49 930.59 97.5"/>
        <path class="cls-3" d="M931.25,96.86h0s0,0,0,0c0,0-.01-.01-.02-.02h0c-3.16-3.26-6.94-4.92-11.3-4.92-4.58,0-8.48,1.66-11.66,4.95h0s0,.01,0,.01l.68,.63h0s-.68-.63-.68-.63c-3.05,3.28-4.58,7.23-4.58,11.79,0,4.23,1.42,7.8,4.27,10.65,1.72,1.72,3.58,2.93,5.57,3.61l-9.9,18.44-.43,.8,.8,.44,12.32,6.83,.45-.81h0s-.45,.81-.45,.81l.81,.45,.45-.82,13.49-24.64h0s0-.01,0-.01l-.79-.42-.03-.02,.82,.43c2.01-3.79,3.38-6.91,4.07-9.34,.68-2.39,1.03-4.53,1.03-6.42,0-4.67-1.64-8.63-4.92-11.8Zm-1.82,26.68l-13.03,23.81-10.71-5.93,9.69-18.04,.93-1.73c-.64-.07-1.27-.21-1.89-.4-1.8-.56-3.52-1.63-5.15-3.26-2.48-2.48-3.73-5.57-3.73-9.34,0-4.1,1.36-7.59,4.08-10.52,2.82-2.92,6.24-4.37,10.32-4.37,3.84,0,7.16,1.44,9.99,4.38h.01s.01,.02,.01,.02l.64-.67h0s-.65,.67-.65,.67c2.92,2.82,4.38,6.29,4.38,10.49,0,1.67-.31,3.63-.96,5.91-.64,2.24-1.94,5.23-3.92,8.98Z"/>
      </g>
      <g>
        <polygon class="cls-1" points="1329.69 43 1329.58 43.22 1329.69 42.99 1329.69 43"/>
        <polygon class="cls-1" points="1294.85 118.76 1295.35 117.98 1294.86 118.77 1295.67 117.46 1294.85 118.76"/>
        <polygon class="cls-1" points="1304.6 71.32 1303.87 70.9 1304.6 71.32 1304.6 71.32"/>
        <polygon class="cls-1" points="1295.35 44.72 1294.85 43.94 1295.67 45.23 1295.35 44.72"/>
        <polygon class="cls-1" points="1333.77 95.29 1334.33 95.79 1333.64 95.17 1333.77 95.29"/>
        <polygon class="cls-1" points="1281.36 103.08 1280.71 103.43 1281.34 103.09 1281.36 103.08"/>
        <path class="cls-1" d="M1361.69,41.82h-23.12v8.12c-.59-.67-1.2-1.32-1.86-1.93-2.06-1.91-4.43-3.5-7.13-4.78h0c-4.19-2.04-8.93-3.07-14.25-3.07-7.28,0-13.77,1.79-19.49,5.35h0c-5.63,3.57-10.12,8.44-13.49,14.63h0c-3.25,6.18-4.89,13.24-4.89,21.22s1.64,15.04,4.89,21.21h0c3.37,6.19,7.87,11.06,13.49,14.63h0c5.72,3.56,12.21,5.35,19.49,5.35,5.32,0,10.12-1.03,14.42-3.07,2.65-1.26,4.97-2.81,6.96-4.63,.66-.6,1.27-1.24,1.86-1.91v7.95h23.12V41.82Zm-27.36,53.98h0s-.01,.01-.01,.01c-3.53,3.76-8.17,5.62-13.83,5.62-3.6,0-6.87-.87-9.8-2.63-2.92-1.75-5.2-4.15-6.83-7.18-1.64-3.04-2.45-6.47-2.45-10.26s.81-7.39,2.45-10.43h0s.01-.02,.01-.02c1.74-3.01,4.01-5.35,6.82-6.99h0s0,0,0,0c0,0,0,0,0,0h0c2.93-1.76,6.25-2.62,9.96-2.62s6.98,.87,9.81,2.64h0c2.92,1.65,5.15,4,6.67,7.03h0c1.63,3.04,2.44,6.51,2.44,10.4,0,5.75-1.74,10.59-5.24,14.44Zm5.72,15.32h.01s.74,.54,.74,.54l-.75-.54Z"/>
        <path class="cls-1" d="M1335.49,71.79h-.01c-1.36-2.74-3.34-4.82-5.95-6.28h-.02s-.02-.02-.02-.02c-2.5-1.56-5.43-2.36-8.83-2.36s-6.4,.8-9.02,2.37h-.01s0,0,0,0c-2.5,1.46-4.55,3.55-6.14,6.3h0c-1.47,2.73-2.22,5.91-2.22,9.55s.74,6.65,2.22,9.38c1.47,2.74,3.52,4.89,6.15,6.47,2.62,1.57,5.57,2.37,8.85,2.37,5.22,0,9.33-1.69,12.47-5.03,3.15-3.47,4.75-7.84,4.75-13.19,0-3.64-.75-6.82-2.22-9.55h0Z"/>
        <polygon class="cls-1" points="1311.29 64.92 1311.16 64.7 1311.62 65.49 1311.29 64.92"/>
        <polygon class="cls-1" points="1329.98 64.7 1329.53 65.51 1329.98 64.7 1329.98 64.7"/>
        <path class="cls-3" d="M1337.14,70.94c-1.52-3.04-3.75-5.39-6.67-7.03h0c-2.83-1.77-6.11-2.64-9.81-2.64s-7.03,.87-9.96,2.62h0s0,0,0,0c0,0,0,0,0,0h0c-2.82,1.64-5.08,3.98-6.82,6.99l.73,.43h0s-.73-.43-.73-.43h-.01v.02c-1.64,3.04-2.45,6.53-2.45,10.43s.81,7.23,2.45,10.26c1.63,3.03,3.91,5.43,6.83,7.18,2.93,1.76,6.2,2.63,9.8,2.63,5.66,0,10.3-1.86,13.83-5.62h.01s-.56-.51-.56-.51l-.13-.12,.69,.62c3.5-3.85,5.24-8.69,5.24-14.44,0-3.89-.81-7.37-2.44-10.4h0Zm-25.85-6.03l.33,.57-.46-.79,.13,.22Zm26.42,16.43c0,5.35-1.6,9.72-4.75,13.19-3.14,3.34-7.26,5.03-12.47,5.03-3.28,0-6.23-.79-8.85-2.37-2.63-1.58-4.68-3.73-6.15-6.47-1.48-2.74-2.22-5.86-2.22-9.38s.75-6.82,2.22-9.55h0c1.6-2.75,3.64-4.84,6.14-6.3h0s.01,0,.01,0c2.62-1.57,5.62-2.37,9.02-2.37s6.33,.8,8.83,2.36h.02s.02,.02,.02,.02l.45-.81h0s-.45,.81-.45,.81c2.61,1.46,4.59,3.54,5.95,6.27h.01v.02c1.47,2.73,2.22,5.91,2.22,9.55Z"/>
        <path class="cls-3" d="M1362.62,39.96h-25.91v5.59c-1.89-1.56-3.99-2.89-6.32-4h0c-4.47-2.18-9.5-3.26-15.06-3.26-7.6,0-14.43,1.87-20.47,5.63h0s.5,.78,.5,.78l.32,.51-.82-1.29c-5.91,3.75-10.62,8.87-14.14,15.33h0s.66,.36,.66,.36l.16,.09h0s-.16-.09-.16-.09l-.66-.35c-3.41,6.48-5.1,13.84-5.1,22.08s1.69,15.6,5.1,22.08l.66-.35h-.02s-.63,.35-.63,.35h0c3.52,6.47,8.23,11.59,14.14,15.34l.82-1.3-.81,1.3c6.04,3.76,12.87,5.64,20.47,5.64,5.56,0,10.64-1.08,15.22-3.25,2.27-1.08,4.33-2.37,6.16-3.85v5.44h26.83V39.96h-.92Zm-24.05,75.66v-2.69c-.59,.67-1.2,1.31-1.86,1.91-1.99,1.82-4.31,3.37-6.96,4.63-4.3,2.04-9.1,3.07-14.42,3.07-7.28,0-13.77-1.79-19.49-5.35h0c-5.63-3.57-10.12-8.44-13.49-14.63h0c-3.25-6.18-4.89-13.24-4.89-21.22s1.64-15.04,4.89-21.21h0c3.37-6.19,7.87-11.06,13.49-14.63h0c5.72-3.56,12.21-5.35,19.49-5.35,5.32,0,10.06,1.03,14.25,3.07h0s.11-.22,.11-.22h0s-.11,.23-.11,.23c2.7,1.28,5.07,2.87,7.13,4.78,.66,.61,1.27,1.25,1.86,1.93v-8.12h23.12V120.88h-23.12v-5.26Z"/>
        <polygon class="cls-3" points="1294.85 118.76 1294.86 118.77 1295.35 117.98 1294.85 118.76"/>
        <line class="cls-2" x1="1280.71" y1="59.27" x2="1281.36" y2="59.62"/>
        <line class="cls-2" x1="1280.71" y1="59.27" x2="1281.36" y2="59.62"/>
        <line class="cls-2" x1="1280.71" y1="59.27" x2="1281.36" y2="59.62"/>
        <polygon class="cls-3" points="1281.53 59.7 1281.36 59.62 1281.53 59.7 1281.53 59.7"/>
        <polygon class="cls-3" points="1281.53 59.7 1281.36 59.62 1281.53 59.7 1281.53 59.7"/>
        <polygon class="cls-3" points="1281.53 59.7 1281.36 59.62 1281.53 59.7 1281.53 59.7"/>
        <polygon class="cls-3" points="1340.05 111.11 1340.8 111.65 1340.06 111.1 1340.05 111.11"/>
      </g>
      <g>
        <polygon class="cls-1" points="742.44 63.38 742.9 64.17 742.43 63.37 742.44 63.38"/>
        <polygon class="cls-1" points="759.58 65.54 758.92 66.17 759.58 65.54 759.58 65.54"/>
        <polygon class="cls-1" points="737.44 68.36 737.44 68.36 738.24 68.83 737.44 68.36 737.44 68.36"/>
        <path class="cls-1" d="M788.13,70.03c0-5.39-1.29-10.34-3.87-14.86-2.58-4.52-6.13-8.13-10.66-10.82h-.01s-.01-.01-.01-.01c-4.39-2.78-9.48-4.19-15.32-4.19s-11.53,1.3-16.38,3.89h0c-1.96,1.03-3.73,2.24-5.33,3.63-.65,.56-1.26,1.15-1.85,1.77v-7.62h-23.62V120.88h23.62v-45.2c0-.5,.03-.98,.06-1.46,.18-2.25,.77-4.31,1.79-6.14,.03-.06,.06-.12,.09-.18h0s0,0,0,0c0,0,0,0,0-.01h0c1.3-2.35,3.07-4.13,5.33-5.33h0s.02-.01,.03-.02c0,0,0,0,0,0h0c2.26-1.3,4.86-1.94,7.76-1.94,4.21,0,7.72,1.41,10.46,4.25h0s0,0,.01,.01c0,0,.01,0,.02,.01h0c2.85,2.75,4.25,6.38,4.25,10.8v45.2h23.62v-50.86Z"/>
        <polygon class="cls-1" points="774.08 43.54 773.57 44.34 774.07 43.55 774.08 43.54"/>
        <polygon class="cls-3" points="738.24 68.83 738.25 68.82 738.25 68.81 737.44 68.36 738.24 68.83"/>
        <polygon class="cls-3" points="737.44 68.36 737.44 68.36 737.44 68.36 737.44 68.36"/>
        <polygon class="cls-3" points="737.44 68.36 737.44 68.36 737.44 68.36 737.44 68.36"/>
        <polygon class="cls-3" points="737.44 68.36 738.25 68.81 737.44 68.36 737.44 68.36"/>
        <polygon class="cls-3" points="737.44 68.36 738.25 68.81 737.44 68.36 737.44 68.36"/>
        <polygon class="cls-3" points="737.44 68.36 738.25 68.81 737.44 68.36 737.44 68.36"/>
        <polygon class="cls-3" points="759.58 65.53 759.58 65.53 759.58 65.53 759.58 65.53"/>
        <polygon class="cls-3" points="759.58 65.53 759.58 65.53 759.58 65.53 759.58 65.53"/>
        <polygon class="cls-3" points="759.58 65.53 759.58 65.53 759.58 65.53 759.58 65.53"/>
        <path class="cls-3" d="M785.86,54.25c-2.74-4.8-6.51-8.62-11.3-11.48h0s0,0,0,0c0,0-.01,0-.02-.01h0c-4.71-2.98-10.15-4.46-16.29-4.46s-12.11,1.36-17.25,4.1h0s0,0,0,0c0,0,0,0,0,0h0c-1.6,.84-3.08,1.81-4.47,2.88v-5.32h-27.33V122.74h27.33v-47.05c0-2.64,.58-4.91,1.71-6.86l-.8-.46h0s0,0,0,0l.81,.45c1.14-2.07,2.68-3.6,4.61-4.62h.02s.02-.02,.02-.02l-.46-.79h0s.46,.79,.46,.79c1.95-1.13,4.23-1.71,6.86-1.71,3.77,0,6.79,1.25,9.16,3.71l.66-.64h0s-.66,.64-.66,.64h.01s.01,.03,.01,.03c2.46,2.35,3.71,5.48,3.71,9.49v47.05h27.33v-52.71c0-5.71-1.37-10.97-4.12-15.78Zm-26.28,11.28h0s0,0,0,0h0Zm4.92,10.16c0-4.42-1.4-8.05-4.25-10.8h0s-.01-.01-.02-.02c0,0,0,0-.01-.01h0c-2.74-2.84-6.25-4.25-10.46-4.25-2.9,0-5.5,.64-7.76,1.94h0s0,0,0,0c0,0-.02,0-.03,.01h0c-2.26,1.2-4.04,2.99-5.33,5.33h0s0,0,0,.01c0,0,0,0,0,0h0c-.03,.06-.06,.12-.09,.18-1.02,1.83-1.61,3.89-1.79,6.14-.04,.48-.06,.96-.06,1.46v45.2h-23.62V41.82h23.62v7.62c.59-.62,1.21-1.21,1.85-1.77,1.61-1.39,3.38-2.6,5.33-3.63h0c4.85-2.59,10.3-3.89,16.38-3.89s10.93,1.4,15.32,4.19l.5-.8h0s-.5,.8-.5,.8h.01s.01,.01,.01,.01c4.53,2.69,8.08,6.3,10.66,10.82,2.58,4.52,3.87,9.46,3.87,14.86v50.86h-23.62v-45.2Z"/>
      </g>
      <g>
        <polygon class="cls-1" points="828.56 71.52 827.75 71.09 828.56 71.52 828.56 71.52"/>
        <polygon class="cls-1" points="819.39 118.01 818.92 118.77 819.41 117.98 819.39 118.01"/>
        <polygon class="cls-1" points="855.05 120.17 855.46 120.97 855.04 120.15 855.05 120.17"/>
        <polygon class="cls-1" points="835.04 64.68 834.57 63.91 835.06 64.7 835.04 64.68"/>
        <polygon class="cls-1" points="805.42 103 804.6 103.43 805.39 103.01 805.42 103"/>
        <polygon class="cls-1" points="819.41 44.72 818.92 43.93 819.4 44.72 819.41 44.72"/>
        <polygon class="cls-1" points="805.42 59.7 804.6 59.27 805.42 59.7 805.42 59.7"/>
        <path class="cls-1" d="M885.58,1.85h-23.62V48.15c-.59-.54-1.21-1.05-1.85-1.54-1.7-1.3-3.57-2.43-5.62-3.38h0s.4-.84,.4-.84l-.39,.84,.39-.84-.4,.84c-4.3-2.04-9.16-3.07-14.59-3.07-7.5,0-14.16,1.79-19.99,5.36-5.74,3.57-10.29,8.45-13.66,14.63-3.25,6.18-4.89,13.24-4.89,21.21s1.64,15.03,4.89,21.21c3.37,6.19,7.92,11.06,13.66,14.64,5.83,3.56,12.49,5.35,19.99,5.35,5.42,0,10.33-1.08,14.74-3.23,2.2-1.13,4.19-2.42,5.98-3.89,.65-.53,1.26-1.09,1.85-1.66v7.11h23.12V1.85Zm-24.57,89.93c-1.63,3.02-3.85,5.42-6.65,7.17h-.01s-.01,.01-.01,.01c-2.83,1.65-6.16,2.46-9.96,2.46-3.6,0-6.87-.87-9.8-2.63-2.92-1.75-5.2-4.15-6.83-7.18-1.64-3.04-2.44-6.47-2.44-10.26s.81-7.23,2.44-10.26h0s0-.02,0-.02c1.74-3.01,4.01-5.4,6.8-7.15h0s0,0,0,0c2.93-1.76,6.26-2.63,9.97-2.63s6.97,.87,9.8,2.63h0s0,0,.01,0c0,0,0,0,0,0h0c2.91,1.75,5.13,4.14,6.64,7.16h0s0,.02,.01,.03c0,0,0,0,0,.01h0c1.63,2.93,2.43,6.35,2.43,10.24s-.8,7.39-2.44,10.43Z"/>
        <path class="cls-1" d="M859.37,71.94c-1.36-2.73-3.35-4.87-5.98-6.45h0s0,0,0,0c-2.5-1.56-5.43-2.36-8.83-2.36s-6.39,.79-9,2.36c-2.52,1.58-4.58,3.73-6.17,6.49-1.47,2.73-2.22,5.85-2.22,9.37s.75,6.65,2.22,9.38c1.48,2.74,3.52,4.89,6.15,6.47,2.62,1.57,5.56,2.37,8.85,2.37,3.52,0,6.51-.75,9.01-2.2,2.52-1.58,4.51-3.73,5.99-6.47,1.47-2.73,2.22-5.91,2.22-9.55s-.75-6.76-2.21-9.37v-.02s-.02-.02-.02-.02Z"/>
        <polygon class="cls-1" points="860.2 71.53 859.39 71.98 860.2 71.52 860.2 71.53"/>
        <polygon class="cls-3" points="853.87 98.17 853.87 98.17 853.87 98.17 854.34 98.97 853.87 98.17"/>
        <polygon class="cls-3" points="853.87 98.17 853.87 98.17 853.87 98.17 854.34 98.97 853.87 98.17"/>
        <polygon class="cls-3" points="853.87 98.17 853.87 98.17 853.87 98.17 853.87 98.17"/>
        <polygon class="cls-3" points="853.87 98.17 853.87 98.17 853.87 98.17 853.87 98.17"/>
        <polygon class="cls-3" points="853.87 98.17 853.87 98.17 853.87 98.17 853.87 98.17"/>
        <path class="cls-3" d="M886.51,0h-26.4V44.31c-1.5-1.04-3.11-1.96-4.84-2.76h0s0,0,0,0c0,0,0,0,0,0h0c-4.58-2.17-9.71-3.25-15.38-3.25-7.81,0-14.81,1.87-20.96,5.63l.48,.79h0s-.48-.79-.48-.79h0c-6.02,3.76-10.8,8.87-14.31,15.33h0s.82,.44,.82,.44h0s-.82-.43-.82-.43c-3.41,6.48-5.1,13.84-5.1,22.08s1.69,15.6,5.1,22.08l.82-.43-.03,.02-.79,.42h0c3.51,6.47,8.29,11.59,14.31,15.34h0s.47-.76,.47-.76l.02-.03-.48,.79c6.15,3.76,13.15,5.63,20.96,5.63,5.68,0,10.87-1.14,15.56-3.42h0s0,0,0,0l-.41-.81v-.02s.41,.83,.41,.83c1.85-.95,3.56-2.02,5.15-3.2v4.97h26.83V0h-.93Zm-24.05,116.28v-2.51c-.59,.57-1.21,1.13-1.85,1.66-1.79,1.47-3.78,2.76-5.98,3.89-4.41,2.15-9.32,3.23-14.74,3.23-7.5,0-14.16-1.79-19.99-5.35-5.74-3.57-10.29-8.45-13.66-14.64-3.25-6.18-4.89-13.24-4.89-21.21s1.64-15.03,4.89-21.21c3.37-6.19,7.92-11.06,13.66-14.63,5.83-3.56,12.49-5.36,19.99-5.36,5.43,0,10.29,1.03,14.59,3.07l.4-.84-.39,.84c2.05,.95,3.92,2.08,5.62,3.38,.64,.49,1.26,1,1.85,1.54V1.85h23.62V120.88h-23.12v-4.61Z"/>
        <path class="cls-3" d="M861.03,71.11s0,0,0-.01c0,0,0-.02-.01-.03h0c-1.52-3.02-3.74-5.41-6.64-7.16h0s0,0,0,0c0,0,0,0-.01,0h0c-2.83-1.76-6.1-2.63-9.8-2.63s-7.03,.87-9.97,2.63h0s0,0,0,0l.48,.77v.02s-.48-.79-.48-.79c-2.8,1.75-5.07,4.14-6.8,7.15h0s0,.02,0,.02l.81,.44h0s-.81-.44-.81-.44c-1.64,3.04-2.44,6.47-2.44,10.26s.81,7.23,2.44,10.26c1.63,3.03,3.91,5.43,6.83,7.18,2.93,1.76,6.2,2.63,9.8,2.63,3.8,0,7.13-.81,9.96-2.46l-.47-.8h0s0,0,0,0h0s.47,.8,.47,.8h.01s.01-.01,.01-.01c2.81-1.75,5.03-4.15,6.65-7.17,1.64-3.04,2.44-6.53,2.44-10.43s-.8-7.31-2.43-10.24h0Zm.58,10.24c0,3.64-.75,6.82-2.22,9.55-1.48,2.75-3.48,4.9-5.99,6.47-2.5,1.45-5.49,2.2-9.01,2.2-3.28,0-6.23-.79-8.85-2.37-2.63-1.58-4.68-3.73-6.15-6.47-1.47-2.74-2.22-5.86-2.22-9.38s.75-6.64,2.22-9.37c1.59-2.75,3.65-4.91,6.17-6.49,2.62-1.57,5.61-2.36,9-2.36s6.33,.8,8.83,2.36l.49-.79h0s-.49,.79-.49,.79h0s0,0,0,0c2.62,1.57,4.61,3.72,5.98,6.45v.02s.02,.02,.02,.02l.81-.45h0s-.81,.45-.81,.45c1.46,2.61,2.21,5.73,2.21,9.37Z"/>
        <polygon class="cls-3" points="853.87 64.7 853.87 64.7 853.38 65.48 853.87 64.7"/>
        <polygon class="cls-3" points="853.87 64.7 853.87 64.7 853.38 65.48 853.87 64.7"/>
        <polygon class="cls-3" points="854.47 43.22 854.48 43.23 854.87 42.39 854.47 43.22"/>
      </g>
    </g>
  </g>
</svg>