<?xml version="1.0" encoding="UTF-8"?>
<svg id="Livello_2" data-name="Livello 2" xmlns="http://www.w3.org/2000/svg" width="1410.51" height="156.87" viewBox="0 0 1410.51 156.87">
  <defs>
    <style>
      .cls-1, .cls-2 {
        fill: none;
      }

      .cls-3 {
        fill: #fff;
      }

      .cls-3, .cls-2 {
        isolation: isolate;
        opacity: .4;
      }

      .cls-2 {
        stroke: #fff;
        stroke-linecap: round;
        stroke-linejoin: round;
        stroke-width: 0px;
      }
    </style>
  </defs>
  <g id="Livello_1-2" data-name="Livello 1">
    <g>
      <rect class="cls-1" x="279.46" y="41.02" width=".69" height="0"/>
      <g>
        <path class="cls-1" d="M596.1,68.39h0c-1.26-2.94-3.13-5.11-5.61-6.56h-.02s-.02-.02-.02-.02c-2.37-1.55-5.35-2.35-8.99-2.35-3.84,0-7.16,.91-10,2.69h0s0,0,0,0c-2.72,1.67-4.88,4.09-6.48,7.27-.29,.62-.55,1.28-.78,1.96l32.91-.09c-.28-1.04-.62-2.02-1.01-2.9h0Z"/>
        <polygon class="cls-1" points="564.15 69.03 563.32 68.61 564.14 69.02 564.15 69.03"/>
        <polygon class="cls-3" points="570.98 61.38 570.98 61.37 570.97 61.37 570.98 61.38"/>
        <polygon class="cls-3" points="570.98 61.38 570.98 61.37 570.97 61.37 570.98 61.38"/>
        <polygon class="cls-3" points="570.98 61.38 570.98 61.37 570.97 61.37 570.98 61.38"/>
        <path class="cls-3" d="M599.03,71.3c-.33-1.31-.73-2.52-1.23-3.63h0s0,0,0,0c0,0,0,0,0,0h0c-1.4-3.25-3.51-5.73-6.34-7.39h0s0,0-.01,0c0,0-.02-.01-.02-.02h0c-2.73-1.77-6.06-2.62-9.96-2.62-4.15,0-7.82,.98-10.98,2.97h0c-3.04,1.88-5.43,4.56-7.16,8.03l.83,.41h0s-.82-.41-.82-.41h0s0,.02,0,.02c-.41,.88-.76,1.8-1.07,2.76-.19,.6-.35,1.22-.5,1.85h1.9s33.9-.1,33.9-.1h1.89c-.12-.64-.25-1.26-.4-1.86Zm-28.05-9.92h0s0,0,0,0h0Zm-6.78,10.02c.23-.68,.49-1.34,.78-1.96,1.6-3.19,3.76-5.6,6.48-7.27h0s0,0,0,0c2.83-1.78,6.15-2.69,10-2.69,3.64,0,6.62,.8,8.99,2.35h.02s.02,.02,.02,.02c2.48,1.44,4.35,3.61,5.61,6.56h0s0,.01,0,.01c.39,.88,.72,1.85,1.01,2.9l-32.91,.09Z"/>
      </g>
      <g>
        <polygon class="cls-1" points="5.92 59.7 5.1 59.27 5.92 59.7 5.92 59.7"/>
        <polygon class="cls-1" points="5.19 103.38 5.89 103.01 5.92 103 5.19 103.38"/>
        <polygon class="cls-1" points="19.73 118 19.25 118.77 19.74 117.98 19.73 118"/>
        <polygon class="cls-1" points="19.74 44.71 19.25 43.94 19.74 44.72 19.74 44.71"/>
        <polygon class="cls-1" points="54.37 42.39 53.97 43.22 54.37 42.4 54.37 42.39"/>
        <path class="cls-1" d="M86.08,41.82h-23.12v8.11c-.59-.67-1.2-1.31-1.85-1.92-2.06-1.91-4.43-3.5-7.13-4.79h0c-4.19-2.04-8.93-3.07-14.25-3.07-7.28,0-13.76,1.79-19.49,5.35-5.63,3.57-10.13,8.45-13.5,14.64-3.25,6.18-4.89,13.24-4.89,21.21s1.64,15.03,4.89,21.21c3.37,6.19,7.87,11.07,13.5,14.64,5.72,3.56,12.21,5.35,19.49,5.35,5.32,0,10.12-1.03,14.42-3.07,2.66-1.26,4.97-2.81,6.96-4.63,.66-.6,1.27-1.24,1.85-1.9v7.94h23.12V41.82Z"/>
        <path class="cls-3" d="M87.01,39.96h-25.9v5.59c-1.89-1.56-4-2.89-6.33-4h0s0,0,0,0c0,0,0,0,0,0h0c-4.47-2.18-9.49-3.25-15.05-3.25-7.6,0-14.43,1.87-20.47,5.63h0s.49,.78,.49,.78h0s-.5-.78-.5-.78c-5.91,3.75-10.63,8.87-14.14,15.33h0s0,.01,0,.01l.82,.43h0s-.82-.43-.82-.43c-3.41,6.48-5.1,13.84-5.1,22.08s1.69,15.6,5.1,22.08h0s0,.01,0,.01c3.51,6.46,8.23,11.57,14.14,15.33h0s.48-.76,.48-.76v-.02s-.48,.78-.48,.78c6.04,3.76,12.87,5.64,20.47,5.64,5.56,0,10.64-1.08,15.22-3.25,2.28-1.08,4.34-2.37,6.17-3.86v5.44h26.83V39.96h-.93ZM5.19,103.38l.73-.38-.03,.02-.7,.37Zm57.77,12.25v-2.69c-.58,.66-1.2,1.3-1.85,1.9-1.99,1.82-4.31,3.37-6.96,4.63-4.3,2.04-9.11,3.07-14.42,3.07-7.28,0-13.76-1.79-19.49-5.35-5.63-3.57-10.13-8.45-13.5-14.64-3.25-6.18-4.89-13.24-4.89-21.21s1.64-15.03,4.89-21.21c3.37-6.19,7.87-11.07,13.5-14.64,5.72-3.56,12.21-5.35,19.49-5.35,5.32,0,10.06,1.03,14.25,3.07l.4-.83h0s-.4,.83-.4,.83h0c2.7,1.29,5.07,2.88,7.13,4.79,.65,.61,1.26,1.25,1.85,1.92v-8.11h23.12V120.88h-23.12v-5.26Z"/>
      </g>
      <g>
        <polygon class="cls-1" points="54.38 64.7 53.88 65.48 54.38 64.7 54.38 64.7"/>
        <polygon class="cls-1" points="58.04 95.17 58.71 95.8 58.04 95.17 58.04 95.17"/>
        <polygon class="cls-1" points="35.56 64.7 36.04 65.49 35.56 64.7 35.56 64.7"/>
        <polygon class="cls-1" points="29.07 71.36 28.25 70.92 29.07 71.36 29.07 71.36"/>
        <path class="cls-1" d="M59.88,71.79h0c-1.36-2.74-3.34-4.82-5.95-6.28h-.02s-.02-.02-.02-.02c-2.5-1.56-5.43-2.36-8.83-2.36s-6.4,.8-9.01,2.37h0s0,0,0,0c-2.51,1.46-4.56,3.56-6.15,6.31-1.47,2.73-2.21,5.9-2.21,9.54s.75,6.65,2.22,9.38c1.48,2.74,3.52,4.89,6.15,6.47,2.62,1.57,5.56,2.37,8.85,2.37,5.21,0,9.34-1.69,12.47-5.03,3.15-3.47,4.75-7.84,4.75-13.19,0-3.64-.75-6.82-2.22-9.55h0Z"/>
        <polygon class="cls-1" points="60.7 71.36 59.89 71.8 60.7 71.36 60.7 71.36"/>
        <path class="cls-3" d="M61.53,70.95h0s0,0,0-.01c0,0,0,0,0-.01h0c-1.52-3.02-3.74-5.37-6.65-7.01h0s-.01,0-.02-.01c0,0-.01,0-.02-.01h0c-2.82-1.75-6.09-2.62-9.78-2.62s-7.03,.87-9.96,2.62h0s0,0,0,0,0,0,0,0h0c-2.81,1.64-5.08,3.98-6.82,6.99h0s0,.02,0,.02l.82,.44h0s-.82-.44-.82-.44c-1.64,3.04-2.44,6.53-2.44,10.43s.81,7.23,2.44,10.26c1.63,3.03,3.91,5.43,6.83,7.18,2.93,1.76,6.2,2.63,9.8,2.63,5.66,0,10.3-1.86,13.83-5.62l-.68-.63h0s.67,.63,.67,.63h0s0-.01,0-.01c3.5-3.85,5.24-8.69,5.24-14.44,0-3.89-.8-7.37-2.43-10.4Zm-4.17,23.6c-3.13,3.34-7.26,5.03-12.47,5.03-3.28,0-6.23-.79-8.85-2.37-2.63-1.58-4.68-3.73-6.15-6.47-1.47-2.74-2.22-5.86-2.22-9.38s.75-6.81,2.21-9.54c1.59-2.75,3.64-4.85,6.15-6.31h0s0,0,0,0l-.47-.79h0s.48,.79,.48,.79c2.62-1.57,5.61-2.37,9.01-2.37s6.34,.8,8.83,2.36l.49-.79h0s-.49,.79-.49,.79h.02s.02,.02,.02,.02c2.61,1.46,4.59,3.54,5.95,6.27h0s0,.02,0,.02l.81-.44h0s-.82,.44-.82,.44c1.47,2.73,2.22,5.91,2.22,9.55,0,5.35-1.6,9.72-4.75,13.19Z"/>
      </g>
      <polygon class="cls-3" points="280.13 41.16 280.13 41.77 280.34 41.25 280.13 41.16"/>
      <rect class="cls-3" x="280.13" y="62.53" width=".93" height=".93"/>
      <polygon class="cls-3" points="280.13 41.16 280.13 40.89 280.13 39.96 279.49 39.96 279.49 40.89 280.13 41.16"/>
      <polygon class="cls-3" points="280.13 41.16 280.34 41.25 280.5 40.89 280.13 40.89 280.13 41.16"/>
      <polygon class="cls-3" points="280.13 41.16 280.34 41.25 280.13 41.16 280.13 41.16"/>
      <polygon class="cls-3" points="280.5 40.89 280.89 39.96 280.13 39.96 280.13 40.89 280.5 40.89"/>
      <g>
        <path class="cls-1" d="M367.2,2.69c-3.76,0-6.85,1.24-9.33,3.72-2.37,2.48-3.57,5.57-3.57,9.34s1.19,6.75,3.57,9.35c2.48,2.47,5.56,3.71,9.32,3.71s6.79-1.24,9.15-3.7c2.39-2.6,3.58-5.7,3.58-9.36s-1.2-6.87-3.57-9.35c-2.36-2.47-5.39-3.71-9.15-3.71Z"/>
        <polygon class="cls-3" points="357.21 5.76 356.55 5.11 357.21 5.75 357.21 5.76"/>
        <polygon class="cls-3" points="357.21 5.76 356.55 5.11 357.21 5.75 357.21 5.76"/>
        <path class="cls-3" d="M377.7,5.11c-2.74-2.86-6.27-4.28-10.49-4.28s-7.8,1.42-10.65,4.27h0s0,.01,0,.01l.67,.64h0s-.67-.64-.67-.64c-2.73,2.85-4.09,6.42-4.09,10.63s1.36,7.67,4.07,10.62h.01s.01,.03,.01,.03c2.85,2.85,6.42,4.27,10.65,4.27s7.75-1.42,10.49-4.28h0s0-.01,0-.01c2.72-2.95,4.08-6.51,4.08-10.62s-1.35-7.78-4.09-10.63Zm-1.34,19.99c-2.36,2.46-5.38,3.7-9.15,3.7s-6.84-1.24-9.32-3.71c-2.38-2.6-3.57-5.69-3.57-9.35s1.2-6.87,3.57-9.34c2.48-2.47,5.56-3.72,9.33-3.72s6.79,1.25,9.15,3.71c2.37,2.48,3.57,5.57,3.57,9.35s-1.19,6.76-3.58,9.36Z"/>
        <line class="cls-2" x1="357.21" y1="5.75" x2="357.21" y2="5.76"/>
        <line class="cls-2" x1="357.21" y1="5.75" x2="357.21" y2="5.76"/>
      </g>
      <g>
        <rect class="cls-1" x="355.31" y="41.82" width="23.62" height="79.07"/>
        <path class="cls-3" d="M379.86,39.96h-26.4V122.74h27.33V39.96h-.93Zm-24.55,1.85h23.62V120.88h-23.62V41.82Z"/>
      </g>
      <polygon class="cls-3" points="281.05 40.89 281.05 39.96 280.89 39.96 280.5 40.89 281.05 40.89"/>
      <g>
        <polygon class="cls-1" points="168.9 43.54 168.39 44.34 168.89 43.55 168.9 43.54"/>
        <polygon class="cls-1" points="137.26 63.38 137.72 64.17 137.25 63.37 137.26 63.38"/>
        <polygon class="cls-1" points="132.26 68.36 133.07 68.81 132.26 68.36 132.26 68.36"/>
        <polygon class="cls-1" points="154.4 65.54 153.76 66.2 154.4 65.53 154.4 65.54"/>
        <path class="cls-1" d="M182.95,70.03c0-5.39-1.29-10.34-3.88-14.86-2.58-4.52-6.13-8.13-10.66-10.82h-.01s-.01-.01-.01-.01c-4.39-2.78-9.48-4.19-15.32-4.19s-11.53,1.3-16.38,3.89h0c-1.96,1.03-3.72,2.24-5.33,3.63-.65,.56-1.26,1.15-1.85,1.77v-7.62h-23.62V120.88h23.62v-46.68l.06,.03c.18-2.25,.77-4.31,1.79-6.14,.03-.06,.06-.12,.09-.18h0s0,0,0,0c0,0,0,0,0-.01h0c1.3-2.35,3.07-4.13,5.33-5.33h0s.02-.01,.03-.02c0,0,0,0,0,0h0c2.26-1.3,4.86-1.94,7.76-1.94,4.21,0,7.72,1.41,10.46,4.25h0s0,0,.01,.01c0,0,.01,0,.02,.01h0c2.85,2.75,4.25,6.38,4.25,10.8v45.2h23.62v-50.86Z"/>
        <polygon class="cls-3" points="168.41 44.35 168.89 43.55 168.39 44.34 168.4 44.34 168.41 44.35"/>
        <polygon class="cls-3" points="168.89 43.55 168.89 43.55 168.41 44.35 168.89 43.55"/>
        <polygon class="cls-3" points="168.89 43.55 168.89 43.55 168.41 44.35 168.89 43.55"/>
        <path class="cls-3" d="M180.68,54.25c-2.74-4.8-6.51-8.62-11.3-11.48h0s0,0,0,0c0,0,0,0-.02,0h0c-4.71-2.98-10.15-4.46-16.29-4.46s-12.11,1.36-17.25,4.1h0s0,0,0,0c0,0,0,0,0,0h0c-1.6,.84-3.08,1.81-4.47,2.88v-5.32h-27.33V122.74h27.33v-47.05c0-2.64,.58-4.91,1.71-6.86h0s0-.02,0-.02l-.81-.45h0s.81,.45,.81,.45c1.14-2.07,2.68-3.6,4.61-4.62h.02s.02-.02,.02-.02l-.46-.79h0s.46,.79,.46,.79c1.95-1.13,4.23-1.71,6.86-1.71,3.77,0,6.79,1.25,9.15,3.71h.01s.01,.03,.01,.03l.64-.66h0s-.64,.66-.64,.66c2.46,2.35,3.71,5.48,3.71,9.49v47.05h27.33v-52.71c0-5.71-1.37-10.97-4.12-15.78Zm-21.36,21.44c0-4.42-1.4-8.05-4.25-10.8h0s-.01-.01-.02-.02c0,0,0,0-.01-.01h0c-2.74-2.84-6.25-4.25-10.46-4.25-2.9,0-5.5,.64-7.76,1.94h0s0,0,0,0c0,0-.02,0-.03,.01h0c-2.26,1.2-4.04,2.99-5.33,5.33h0s0,0,0,.01c0,0,0,0,0,0h0c-.03,.06-.06,.12-.09,.18-1.02,1.83-1.61,3.89-1.79,6.14l-.06-.03v46.68h-23.62V41.82h23.62v7.62c.59-.62,1.21-1.21,1.85-1.77,1.61-1.39,3.37-2.6,5.33-3.63h0c4.85-2.59,10.3-3.89,16.38-3.89s10.94,1.4,15.32,4.19l.5-.8h0s0,.01,0,.01l-.47,.8c4.53,2.69,8.08,6.3,10.66,10.82,2.58,4.52,3.88,9.46,3.88,14.86v50.86h-23.62v-45.2Z"/>
      </g>
      <g>
        <polygon class="cls-1" points="342.23 41.82 325.77 41.82 323.92 41.82 323.92 39.96 323.92 8.35 300.29 8.35 300.29 39.96 300.29 41.82 298.44 41.82 281.98 41.82 281.98 61.61 298.44 61.61 300.29 61.61 300.29 63.46 300.29 120.88 323.92 120.88 323.92 63.46 323.92 61.61 325.77 61.61 342.23 61.61 342.23 41.82"/>
        <path class="cls-3" d="M343.16,39.96h-17.39V6.49h-27.33V39.96h-17.39v.93h-.55l-.15,.36-.22,.51v20.77h.93v.93h17.39v59.28h27.33V63.46h18.32v-23.5h-.93Zm-19.24,21.65v59.28h-23.62V61.61h-18.32v-19.79h18.32V8.35h23.62V41.82h18.32v19.79h-18.32Z"/>
      </g>
      <g>
        <polygon class="cls-1" points="460.24 43.06 459.79 43.86 460.24 43.05 460.24 43.06"/>
        <polygon class="cls-1" points="497.54 65.03 496.9 65.7 497.54 65.03 497.54 65.03"/>
        <polygon class="cls-1" points="476.72 67.53 475.95 67.03 476.72 67.53 476.72 67.53"/>
        <polygon class="cls-1" points="424.2 67.1 424.94 67.53 424.94 67.53 424.2 67.1"/>
        <polygon class="cls-1" points="481.55 63.2 482 64.01 481.55 63.2 481.55 63.2"/>
        <polygon class="cls-1" points="445.75 65.03 445.11 65.7 445.75 65.03 445.75 65.03"/>
        <polygon class="cls-1" points="429.77 63.21 430.22 64.01 429.77 63.21 429.77 63.21"/>
        <path class="cls-1" d="M525.92,71.69c0-6.64-1.41-12.24-4.2-16.84h0s0-.02,0-.02c-2.69-4.73-6.39-8.32-11.11-10.79h-.01s-.01-.01-.01-.01c-4.62-2.58-9.95-3.88-16.03-3.88s-11.75,1.36-16.71,4.05h0c-2.99,1.6-5.64,3.63-7.93,6.09-.43,.46-.85,.94-1.25,1.43-.37-.51-.76-1.01-1.16-1.49-2.15-2.57-4.7-4.7-7.69-6.37h0c-4.29-2.47-9.17-3.71-14.69-3.71-5.86,0-11.09,1.25-15.71,3.72h0s0,0,0,0c-1.88,.96-3.6,2.11-5.16,3.43-.65,.55-1.26,1.13-1.85,1.73v-7.23h-23.62V120.88h23.62v-47.78l.05,.02c.16-2.31,.73-4.34,1.74-6.07v-.02s.02-.02,.02-.02c.01-.02,.03-.03,.04-.05,1.3-1.99,3.01-3.52,5.12-4.58h0s.02-.01,.03-.02c0,0,0,0,0,0h0c2.14-1.18,4.56-1.76,7.24-1.76,3.86,0,7.14,1.23,9.77,3.72h0s0,0,.01,.01c0,0,.01,.01,.02,.02h0c2.78,2.43,4.12,5.87,4.12,10.16v46.36h23.62v-46.36c0-.36,0-.71,.03-1.06,.06-1.23,.25-2.37,.54-3.44,.28-1.04,.67-2,1.18-2.88,.02-.03,.03-.06,.04-.08v-.02s.02-.02,.02-.02c1.3-2.01,3.03-3.56,5.16-4.63h0s.02-.01,.03-.02c0,0,0,0,0,0h0c2.14-1.18,4.56-1.76,7.24-1.76,3.86,0,7.14,1.23,9.77,3.72h0s0,0,.01,.01c0,0,.01,.01,.02,.02h0c2.78,2.43,4.12,5.87,4.12,10.16v46.36h23.62v-49.19Z"/>
        <polygon class="cls-1" points="511.02 43.22 510.57 44.03 511.02 43.23 511.02 43.22"/>
        <polygon class="cls-1" points="521.72 54.86 522.52 54.37 521.71 54.83 522.51 54.38 521.72 54.86"/>
        <polygon class="cls-1" points="477.83 44.2 477.36 43.34 477.83 44.2 477.39 43.39 477.83 44.2"/>
        <polygon class="cls-3" points="476.95 42.57 476.95 42.57 476.95 42.57 476.95 42.57"/>
        <polygon class="cls-3" points="476.95 42.57 476.95 42.57 476.95 42.57 476.95 42.57"/>
        <polygon class="cls-3" points="521.72 54.86 522.51 54.38 521.71 54.83 521.71 54.84 521.72 54.86"/>
        <polygon class="cls-3" points="477.39 43.39 477.83 44.2 477.83 44.2 477.39 43.39"/>
        <polygon class="cls-3" points="428.94 43.05 429.37 43.87 428.94 43.05 428.94 43.05"/>
        <polygon class="cls-3" points="428.94 43.05 429.37 43.87 428.94 43.05 428.94 43.05"/>
        <path class="cls-3" d="M523.31,53.9h0c-2.86-5.02-6.8-8.85-11.83-11.49h0s0,0,0,0c0,0,0,0-.01,0h0c-4.92-2.74-10.57-4.1-16.91-4.1s-12.33,1.42-17.59,4.27h0s0,0,0,0c0,0,0,0,0,0-3.1,1.65-5.83,3.75-8.22,6.27-2.25-2.64-4.92-4.85-8.03-6.59h0c-4.6-2.64-9.81-3.95-15.61-3.95-6.12,0-11.66,1.3-16.57,3.93h0s0,0,0,0c0,0,0,0,0,0h0c-1.54,.79-2.96,1.7-4.3,2.71v-4.98h-27.33V122.74h27.33v-48.22c0-2.64,.53-4.8,1.53-6.5,1.13-1.74,2.61-3.07,4.45-3.99h.02s.02-.02,.02-.02l-.44-.8h0s.45,.8,.45,.8c1.85-1.02,3.96-1.55,6.38-1.55,3.45,0,6.26,1.09,8.52,3.24l.64-.67h0s-.64,.67-.64,.67h.02s.02,.03,.02,.03c2.31,2.01,3.51,4.89,3.51,8.79v48.22h27.33v-48.22c0-2.65,.53-4.8,1.53-6.51,1.13-1.74,2.61-3.06,4.45-3.99h.02s.02-.02,.02-.02l-.45-.81h0s.45,.81,.45,.81c1.85-1.02,3.96-1.55,6.38-1.55,3.45,0,6.26,1.09,8.52,3.24l.64-.67h0s-.64,.67-.64,.67h.02s.02,.03,.02,.03c2.31,2.01,3.51,4.89,3.51,8.79v48.22h27.33v-51.05c0-6.9-1.47-12.85-4.46-17.8Zm-99.1,13.2l.73,.43h0s-.74-.43-.74-.43Zm78.09,7.43c0-4.3-1.34-7.73-4.12-10.16h0s-.01-.01-.02-.02c0,0,0,0-.01-.01h0c-2.62-2.49-5.9-3.72-9.77-3.72-2.68,0-5.1,.58-7.24,1.76h0s0,0,0,0c-.01,0-.02,.01-.03,.02h0c-2.13,1.07-3.85,2.62-5.16,4.64l.78,.5h0s-.78-.5-.78-.5v.02s-.02,.02-.02,.02c-.02,.03-.03,.06-.04,.08-.51,.88-.9,1.85-1.18,2.88-.29,1.07-.48,2.21-.54,3.44-.02,.35-.03,.7-.03,1.06v46.36h-23.62v-46.36c0-4.3-1.34-7.73-4.12-10.16h0s-.01-.01-.02-.02c0,0,0,0-.01-.01h0c-2.62-2.49-5.9-3.72-9.77-3.72-2.68,0-5.1,.58-7.24,1.76h0s0,0,0,0c-.01,0-.02,.01-.03,.02h0c-2.11,1.06-3.82,2.6-5.12,4.58-.01,.02-.03,.03-.04,.05v.02s-.02,.02-.02,.02c-1.01,1.72-1.58,3.76-1.74,6.07l-.05-.02v47.78h-23.62V41.82h23.62v7.23c.59-.61,1.21-1.19,1.85-1.73,1.56-1.32,3.27-2.47,5.16-3.43h0s0,0,0,0l-.44-.82h0s.44,.82,.44,.82c4.62-2.47,9.85-3.72,15.71-3.72,5.52,0,10.4,1.24,14.69,3.71h0s.45-.8,.45-.8h0s-.45,.81-.45,.81c2.99,1.68,5.55,3.81,7.69,6.37,.4,.48,.79,.98,1.16,1.49,.41-.49,.82-.97,1.25-1.43,2.3-2.46,4.94-4.49,7.93-6.09l-.46-.87,.47,.86c4.96-2.69,10.52-4.05,16.71-4.05s11.41,1.3,16.03,3.88l.45-.81h0s-.44,.81-.44,.81h.01s.01,.01,.01,.01c4.72,2.47,8.42,6.06,11.11,10.79l.81-.46-.8,.48c2.78,4.6,4.2,10.2,4.2,16.84v49.19h-23.62v-46.36Z"/>
      </g>
      <g>
        <polygon class="cls-1" points="219.38 40.89 220.26 40.6 219.38 40.89 219.38 40.89"/>
        <polygon class="cls-1" points="252.02 40.89 251.14 40.59 252.02 40.89 252.02 40.89"/>
        <polygon class="cls-1" points="230.54 155.94 231.39 156.31 230.54 155.94 230.54 155.94"/>
        <polygon class="cls-1" points="236.49 90.04 235.5 92.97 234.53 90.03 218.71 41.82 193.29 41.82 222.85 113.93 223.81 116.27 222.74 118.57 205.85 155.02 229.92 155.02 243.46 123.07 243.78 122.31 244.01 121.78 244.86 122.14 244.86 122.14 244.86 122.14 244.86 122.14 244.01 121.78 244.25 121.22 244.59 120.42 278.09 41.82 252.68 41.82 236.49 90.04"/>
        <polygon class="cls-1" points="245.23 122.3 245.03 122.22 244.86 122.14 245.14 122.26 245.23 122.3"/>
        <path class="cls-3" d="M279.49,40.89h0v-.93h-28.14l-.21,.63,.88,.3h0s-.88-.3-.88-.3l-15.62,46.5-15.26-46.49-.88,.29h0s.88-.29,.88-.29l-.21-.64h-29.53l.52,1.28,30.73,74.99-18.23,39.33-.61,1.32h28.21l.24-.57-.85-.36h0s.85,.36,.85,.36l14.27-33.69,.05-.11,34.41-80.74v-.61l-.63-.27Zm-34.9,79.53l-.34,.8-.24,.56,.85,.36h0s0,0,0,0l.17,.07,.19,.08-.08-.04-.28-.12h0s0,0,0,0h0s-.85-.36-.85-.36l-.23,.53-.32,.76-13.53,31.95h-24.08l16.89-36.45,1.06-2.29-.96-2.34-29.56-72.12h25.42l15.82,48.21,.97,2.94,.99-2.94,16.2-48.22h25.41l-33.5,78.6Z"/>
        <line class="cls-2" x1="244.86" y1="122.14" x2="244.86" y2="122.14"/>
        <line class="cls-2" x1="244.86" y1="122.14" x2="244.86" y2="122.14"/>
        <line class="cls-2" x1="244.86" y1="122.14" x2="244.86" y2="122.14"/>
      </g>
      <g>
        <polygon class="cls-1" points="1106.18 43.22 1106.61 44.04 1106.25 43.36 1106.18 43.22"/>
        <polygon class="cls-1" points="1107.72 63.46 1108.14 64.17 1107.68 63.37 1107.72 63.46"/>
        <polygon class="cls-1" points="1124.76 65.59 1124.18 66.2 1124.83 65.53 1124.76 65.59"/>
        <path class="cls-1" d="M1153.37,70.03c0-5.97-1.3-11.13-3.87-15.52h-.01v-.02c-2.47-4.5-6-7.98-10.62-10.45h0s-.01,0-.01,0c-4.62-2.58-10.01-3.88-16.2-3.88s-11.42,1.3-16.03,3.88h-.01s-.01,0-.01,0c-1.76,.94-3.37,2.05-4.84,3.3-.65,.56-1.26,1.15-1.85,1.77V1.85h-23.62V120.88h23.62v-45.2c0-.5,.03-.98,.06-1.46,.18-2.25,.76-4.29,1.79-6.13,.03-.06,.06-.13,.1-.19h0s0,0,0,0c0,0,0,0,0-.01h0c1.29-2.35,3.07-4.14,5.33-5.33h0s0,0,0,0c0,0,.01-.01,.02-.01h0c2.26-1.3,4.86-1.94,7.76-1.94,4.22,0,7.73,1.41,10.47,4.26h0c2.87,2.75,4.28,6.39,4.28,10.82v45.2h23.62v-50.86Z"/>
        <polygon class="cls-1" points="1150.3 54.04 1150.3 54.04 1149.49 54.49 1150.3 54.04 1150.3 54.04"/>
        <path class="cls-3" d="M1151.1,53.57h0c-2.64-4.81-6.42-8.54-11.35-11.17h0c-4.93-2.75-10.63-4.11-17.09-4.11s-12.01,1.36-16.94,4.11h0c-1.41,.76-2.72,1.62-3.95,2.56V0h-27.33V122.74h27.33v-47.05c0-2.64,.58-4.91,1.71-6.86l-.8-.46h0s.8,.46,.8,.46h.01v-.02c1.14-2.07,2.68-3.6,4.62-4.62h.01s.02-.02,.02-.02l-.42-.71-.05-.09,.47,.8c1.95-1.13,4.23-1.71,6.86-1.71,3.77,0,6.79,1.25,9.16,3.71h.01s.01,.03,.01,.03l.58-.61,.06-.06-.65,.67c2.46,2.35,3.71,5.48,3.71,9.49v47.05h27.33v-52.71c0-6.24-1.36-11.74-4.12-16.45Zm-21.35,22.11c0-4.43-1.41-8.07-4.28-10.83h0c-2.74-2.84-6.25-4.25-10.47-4.25-2.9,0-5.5,.64-7.76,1.94h0s-.01,0-.02,.01c0,0,0,0,0,0h0c-2.26,1.2-4.04,2.98-5.33,5.33h0s0,0,0,.01c0,0,0,0,0,0h0c-.04,.06-.07,.13-.1,.19-1.02,1.83-1.61,3.88-1.79,6.13-.04,.48-.06,.96-.06,1.46v45.2h-23.62V1.85h23.62V49.11c.59-.62,1.2-1.22,1.85-1.77,1.47-1.26,3.08-2.36,4.84-3.3l-.44-.82,.08,.14,.36,.68h.01s.01,0,.01,0c4.61-2.58,9.95-3.88,16.03-3.88s11.58,1.3,16.2,3.88l.45-.8h0s0,0,0,0h0s-.45,.81-.45,.81h.01c4.62,2.48,8.15,5.96,10.62,10.46l.81-.44h0s0,0,0,0h0s0,0,0,0l-.8,.47c2.57,4.39,3.87,9.55,3.87,15.52v50.86h-23.62v-45.2Z"/>
        <polygon class="cls-3" points="1150.3 54.04 1150.3 54.04 1150.3 54.04 1150.3 54.04 1150.3 54.04 1150.3 54.04"/>
        <polygon class="cls-3" points="1150.3 54.04 1150.3 54.04 1150.3 54.04 1150.3 54.04 1150.3 54.04 1150.3 54.04"/>
        <polygon class="cls-3" points="1150.3 54.04 1150.3 54.04 1150.3 54.04 1150.3 54.04"/>
        <polygon class="cls-3" points="1150.3 54.04 1150.3 54.04 1150.3 54.04 1150.3 54.04"/>
        <polygon class="cls-3" points="1150.3 54.04 1150.3 54.04 1150.3 54.04 1150.3 54.04"/>
        <polygon class="cls-3" points="1102.68 68.36 1102.68 68.36 1103.48 68.83 1102.68 68.36"/>
        <polygon class="cls-3" points="1102.68 68.36 1102.68 68.36 1103.48 68.83 1102.68 68.36"/>
        <polygon class="cls-3" points="1139.31 43.22 1139.31 43.22 1139.31 43.22 1138.86 44.03 1139.31 43.22"/>
        <polygon class="cls-3" points="1139.31 43.22 1139.31 43.22 1139.31 43.22 1138.86 44.03 1139.31 43.22"/>
        <polygon class="cls-3" points="1139.31 43.22 1139.31 43.22 1139.31 43.22 1139.31 43.22"/>
        <polygon class="cls-3" points="1139.31 43.22 1139.31 43.22 1139.31 43.22 1139.31 43.22"/>
        <polygon class="cls-3" points="1139.31 43.22 1139.31 43.22 1139.31 43.22 1139.31 43.22"/>
        <polygon class="cls-3" points="1149.5 54.51 1150.3 54.04 1149.49 54.49 1149.49 54.5 1149.5 54.51"/>
        <polygon class="cls-3" points="1149.5 54.51 1150.3 54.04 1150.3 54.04 1149.5 54.51"/>
        <polygon class="cls-3" points="1149.5 54.51 1150.3 54.04 1150.3 54.04 1149.5 54.51"/>
        <polygon class="cls-3" points="1149.5 54.51 1150.3 54.04 1150.3 54.04 1149.5 54.51"/>
      </g>
      <g>
        <polygon class="cls-1" points="1244.09 58.63 1243.45 59 1244.26 58.54 1244.09 58.63"/>
        <polygon class="cls-1" points="1199.13 101.33 1198.65 102.12 1199.13 101.33 1199.13 101.33"/>
        <polygon class="cls-1" points="1221.66 102.84 1221.22 101.85 1221.63 102.85 1221.28 102 1221.66 102.84"/>
        <polygon class="cls-1" points="1229.77 95.67 1229.07 95.06 1229.77 95.67 1229.77 95.67"/>
        <polygon class="cls-1" points="1187.14 118.32 1187.14 118.31 1187.14 118.32 1186.72 119.14 1187.26 118.09 1187.14 118.32"/>
        <polygon class="cls-1" points="1249.25 84.18 1249.25 84.18 1248.33 84.06 1249.25 84.18"/>
        <polygon class="cls-1" points="1191.76 93.53 1190.99 93.94 1191.81 93.5 1191.76 93.53"/>
        <polygon class="cls-1" points="1248.42 89.68 1248.42 90.6 1248.42 89.68 1248.42 89.68"/>
        <path class="cls-1" d="M1243.45,59h0c-3.36-5.97-8.01-10.62-13.97-13.98-5.95-3.35-12.84-5.04-20.69-5.04s-15.3,1.8-21.69,5.38c-6.41,3.58-11.51,8.52-15.32,14.81h0c-3.68,6.17-5.53,13.22-5.53,21.17s1.9,15.05,5.69,21.33c3.8,6.29,8.99,11.22,15.62,14.81h0c6.73,3.47,14.41,5.22,23.05,5.22,6.66,0,12.76-1.15,18.3-3.43,5.26-2.17,9.77-5.37,13.56-9.6l-12.68-12.68c-2.37,2.51-5.08,4.47-8.13,5.84h-.02s-.01,.01-.01,.01c-3.35,1.39-7.08,2.07-11.18,2.07-4.45,0-8.39-.91-11.77-2.78h-.01s-.02-.02-.02-.02c-3.26-1.98-5.81-4.71-7.66-8.18v-.02s-.02-.02-.02-.02c-.49-1-.89-2.06-1.24-3.17-.19-.6-.36-1.22-.5-1.85h1.9s56.53-.14,56.53-.14c.35-1.77,.58-3.32,.67-4.64v-.06c.22-1.63,.33-3.14,.33-4.54,0-7.74-1.75-14.57-5.21-20.51Zm-18.42,14.15l-33.9,.1h-1.9c.15-.63,.31-1.25,.5-1.85,.3-.97,.66-1.89,1.07-2.76h0s.01-.02,.01-.02c1.73-3.47,4.12-6.15,7.16-8.03h0c3.16-1.99,6.84-2.97,10.98-2.97,3.9,0,7.24,.86,9.96,2.62h0s0,0,.01,0c0,0,.02,.01,.03,.02h0c2.83,1.66,4.94,4.14,6.34,7.4h0c.49,1.11,.9,2.33,1.23,3.64,.15,.6,.28,1.21,.4,1.85h-1.88Z"/>
        <path class="cls-1" d="M1223.59,68.39l.85-.36h0s-.85,.36-.85,.36c-1.26-2.94-3.14-5.11-5.61-6.56h-.02s-.02-.02-.02-.02c-2.37-1.55-5.35-2.35-8.99-2.35-3.84,0-7.16,.91-9.99,2.69h-.01s0,0,0,0c-2.72,1.68-4.89,4.09-6.48,7.28-.29,.62-.54,1.28-.78,1.95l32.9-.09c-.28-1.04-.62-2.02-1.01-2.9h0Z"/>
        <polygon class="cls-1" points="1198.6 61.58 1198.96 62.15 1198.46 61.37 1198.6 61.58"/>
        <polygon class="cls-1" points="1218.45 61.04 1217.94 61.81 1218.41 61.1 1218.45 61.04"/>
        <path class="cls-3" d="M1225.29,67.65h0c-1.39-3.25-3.51-5.73-6.34-7.39h0s-.02-.01-.03-.02c0,0,0,0-.01,0h0c-2.72-1.77-6.06-2.62-9.96-2.62-4.14,0-7.82,.98-10.98,2.97h0c-3.05,1.88-5.43,4.56-7.16,8.03h-.01v.02c-.41,.88-.77,1.8-1.07,2.76-.19,.6-.35,1.22-.5,1.85h1.9s33.9-.1,33.9-.1h1.88c-.12-.64-.25-1.26-.4-1.86-.33-1.31-.74-2.53-1.23-3.64Zm-33.59,3.74c.23-.68,.49-1.33,.78-1.95,1.59-3.19,3.76-5.61,6.48-7.28h0s.01,0,.01,0l-.36-.57-.13-.22,.5,.79c2.83-1.78,6.15-2.69,9.99-2.69,3.64,0,6.62,.8,8.99,2.35l.5-.77-.04,.07-.47,.71h.02s.02,.02,.02,.02c2.47,1.44,4.35,3.61,5.61,6.56l.85-.37h0s-.85,.37-.85,.37h0c.39,.89,.72,1.86,1.01,2.91l-32.9,.09Z"/>
        <polygon class="cls-3" points="1221.66 102.84 1221.28 102 1221.63 102.85 1221.64 102.85 1221.66 102.84"/>
        <polygon class="cls-3" points="1170.66 59.5 1170.66 59.5 1170.2 59.22 1170.66 59.5"/>
        <polygon class="cls-3" points="1170.66 59.5 1170.66 59.5 1170.2 59.22 1170.66 59.5"/>
        <polygon class="cls-3" points="1170.84 59.61 1170.66 59.5 1170.66 59.5 1170.84 59.61"/>
        <polygon class="cls-3" points="1170.84 59.61 1170.66 59.5 1170.66 59.5 1170.84 59.61"/>
        <polygon class="cls-3" points="1170.84 59.61 1170.66 59.5 1170.66 59.5 1170.84 59.61"/>
        <polygon class="cls-3" points="1186.7 119.13 1186.71 119.13 1186.72 119.14 1187.14 118.32 1186.7 119.13"/>
        <polygon class="cls-3" points="1187.14 118.31 1187.14 118.32 1187.14 118.32 1187.14 118.31"/>
        <polygon class="cls-3" points="1187.14 118.31 1187.14 118.32 1187.14 118.32 1187.14 118.31"/>
        <polygon class="cls-3" points="1187.14 118.32 1186.7 119.13 1187.14 118.32 1187.14 118.32"/>
        <polygon class="cls-3" points="1187.14 118.32 1186.7 119.13 1187.14 118.32 1187.14 118.32"/>
        <polygon class="cls-3" points="1187.14 118.32 1186.7 119.13 1187.14 118.32 1187.14 118.32"/>
        <path class="cls-3" d="M1245.06,58.07h0c-3.52-6.25-8.42-11.14-14.67-14.66-6.26-3.53-13.47-5.28-21.6-5.28s-15.9,1.87-22.6,5.61c-6.69,3.74-12.02,8.91-15.99,15.48l.46,.28,.18,.11-.18-.11-.46-.28h0c-3.87,6.49-5.8,13.87-5.8,22.12s1.98,15.7,5.96,22.29c3.98,6.58,9.43,11.75,16.34,15.49l.44-.81,.12-.22-.54,1.04c7.03,3.63,15,5.43,23.9,5.43,6.88,0,13.22-1.18,19-3.57,5.8-2.39,10.75-5.97,14.84-10.74l.56-.65-.61-.61-13.99-13.99-.7-.7-.65,.74,.7,.61h0s-.7-.61-.7-.61c-2.35,2.67-5.07,4.7-8.15,6.08h0c-3.09,1.28-6.57,1.93-10.47,1.93-4.2,0-7.81-.86-10.87-2.55-2.94-1.79-5.25-4.26-6.94-7.42h0c-.36-.75-.68-1.54-.96-2.36l56.74-.14v-.93s0,0,0,0v.93h.75s.15-.74,.15-.74c.45-2.11,.73-3.97,.84-5.56h0c.22-1.7,.34-3.29,.34-4.78,0-8.03-1.81-15.18-5.45-21.45Zm4.19,26.11l-.92-.12v.06c-.1,1.32-.32,2.87-.67,4.64l-56.53,.13h-1.9c.15,.64,.32,1.26,.5,1.86,.35,1.1,.76,2.16,1.24,3.17v.02s.02,.02,.02,.02l.77-.41,.05-.02-.82,.44c1.85,3.47,4.4,6.21,7.66,8.18l.48-.79h0s-.48,.79-.48,.79h.02s.01,.02,.01,.02c3.38,1.86,7.32,2.78,11.77,2.78,4.1,0,7.83-.68,11.18-2.07l-.41-1,.44,.99c3.05-1.37,5.76-3.32,8.13-5.84l12.68,12.68c-3.79,4.23-8.3,7.44-13.56,9.6-5.54,2.28-11.64,3.43-18.3,3.43-8.64,0-16.32-1.75-23.05-5.22h0c-6.62-3.58-11.82-8.52-15.62-14.81-3.79-6.28-5.69-13.39-5.69-21.33s1.85-15,5.53-21.17h0c3.81-6.3,8.91-11.23,15.32-14.82,6.39-3.58,13.62-5.38,21.69-5.38s14.74,1.69,20.69,5.04c5.96,3.36,10.61,8.01,13.97,13.97h0s.64-.36,.64-.36l.17-.09-.8,.47c3.46,5.95,5.21,12.78,5.21,20.51,0,1.4-.11,2.91-.33,4.54l.92,.12h0Z"/>
      </g>
      <g>
        <polygon class="cls-1" points="1389.78 95.67 1390.43 95.01 1389.77 95.67 1389.78 95.67"/>
        <polygon class="cls-1" points="1409.24 84.18 1409.24 84.18 1408.33 84.06 1409.24 84.18"/>
        <polygon class="cls-1" points="1404.43 58.44 1403.45 58.99 1404.26 58.54 1404.43 58.44"/>
        <polygon class="cls-1" points="1351.81 93.5 1350.97 93.91 1351.76 93.53 1351.81 93.5"/>
        <polygon class="cls-1" points="1331 59.7 1330.2 59.22 1330.66 59.5 1331 59.7"/>
        <polygon class="cls-1" points="1381.66 102.84 1381.22 101.85 1381.63 102.85 1381.28 102 1381.66 102.84"/>
        <polygon class="cls-1" points="1404.46 110.26 1403.76 109.66 1404.41 109 1403.76 109.66 1404.46 110.26"/>
        <polygon class="cls-1" points="1347.15 118.31 1346.7 119.13 1347.08 118.44 1347.15 118.31"/>
        <path class="cls-1" d="M1403.46,59h-.01c-3.36-5.97-8.01-10.62-13.97-13.98-5.95-3.35-12.83-5.04-20.69-5.04s-15.29,1.8-21.69,5.38c-6.41,3.58-11.51,8.52-15.31,14.82h0c-3.68,6.17-5.53,13.21-5.53,21.17s1.9,15.05,5.69,21.33c3.8,6.29,9.01,11.23,15.64,14.82h0c6.73,3.47,14.4,5.22,23.03,5.22,6.67,0,12.76-1.15,18.3-3.43,5.26-2.17,9.77-5.37,13.56-9.6l-12.68-12.68c-2.38,2.51-5.09,4.47-8.14,5.84h-.01s-.02,.01-.02,.01c-3.34,1.39-7.07,2.07-11.17,2.07-4.46,0-8.4-.91-11.77-2.78h-.02s-.02-.02-.02-.02c-3.25-1.98-5.81-4.71-7.66-8.18v-.02s-.02-.02-.02-.02c-.49-1-.89-2.06-1.24-3.17-.19-.6-.36-1.22-.5-1.85h1.91s56.53-.14,56.53-.14c.35-1.77,.58-3.32,.67-4.64v-.06c.22-1.63,.33-3.14,.33-4.54,0-7.74-1.74-14.57-5.2-20.51Zm-18.42,14.15l-33.9,.1h-1.9c.15-.63,.31-1.25,.5-1.85,.3-.97,.66-1.89,1.07-2.76h.01v-.02c1.74-3.47,4.12-6.15,7.16-8.03h0c3.17-1.99,6.84-2.97,10.99-2.97,3.89,0,7.23,.86,9.96,2.63h0c2.85,1.66,4.97,4.15,6.37,7.41h0c.49,1.11,.9,2.33,1.23,3.64,.15,.6,.28,1.21,.4,1.85h-1.89Z"/>
        <polygon class="cls-1" points="1378.5 60.96 1377.94 61.81 1378.45 61.04 1378.5 60.96"/>
        <polygon class="cls-1" points="1358.6 61.59 1358.46 61.37 1358.95 62.15 1358.6 61.59"/>
        <path class="cls-1" d="M1383.59,68.39l.85-.37-.84,.38,.98-.44-.99,.42c-1.26-2.94-3.13-5.11-5.61-6.56h-.02s-.02-.02-.02-.02c-2.37-1.55-5.35-2.35-8.98-2.35-3.85,0-7.17,.91-10,2.69h-.01s0,0,0,0c-2.72,1.68-4.88,4.09-6.48,7.28-.29,.62-.54,1.28-.77,1.95l32.91-.09c-.28-1.04-.61-2.02-1-2.9h-.01Z"/>
        <polygon class="cls-1" points="1358.69 102.14 1359.18 101.24 1358.65 102.12 1359.13 101.33 1358.69 102.14"/>
        <path class="cls-3" d="M1385.29,67.65h0c-1.4-3.27-3.52-5.76-6.37-7.42h0c-2.72-1.77-6.06-2.62-9.96-2.62-4.15,0-7.82,.98-10.99,2.97h0c-3.05,1.88-5.42,4.56-7.16,8.03h0s-.01,.02-.01,.02c-.41,.88-.76,1.8-1.07,2.76-.19,.6-.35,1.22-.5,1.85h1.9s33.9-.1,33.9-.1h1.89c-.12-.64-.25-1.26-.4-1.86-.33-1.31-.74-2.53-1.23-3.64Zm-26.69-6.07l.34,.57-.48-.79,.14,.22Zm-6.91,9.81c.23-.68,.49-1.33,.77-1.95,1.6-3.19,3.76-5.61,6.48-7.28h0s.01,0,.01,0c2.83-1.78,6.15-2.69,10-2.69,3.63,0,6.61,.8,8.98,2.35l.56-.85-.05,.08-.51,.78h.02s.02,.02,.02,.02c2.48,1.44,4.35,3.61,5.61,6.56l.99-.42-.98,.44c.39,.88,.72,1.85,1,2.9l-32.91,.09Z"/>
        <polygon class="cls-3" points="1383.59 68.39 1383.6 68.41 1384.44 68.03 1383.59 68.39"/>
        <polygon class="cls-3" points="1358.69 102.14 1359.13 101.33 1358.65 102.12 1358.67 102.13 1358.69 102.14"/>
        <polygon class="cls-3" points="1381.66 102.84 1381.28 102 1381.63 102.85 1381.65 102.85 1381.66 102.84"/>
        <polygon class="cls-3" points="1404.46 110.26 1405.02 109.61 1404.41 109 1403.76 109.66 1404.46 110.26"/>
        <path class="cls-3" d="M1410.51,79.52c0-8.03-1.81-15.18-5.45-21.45h0c-3.52-6.25-8.41-11.14-14.67-14.66-6.26-3.53-13.47-5.28-21.6-5.28s-15.9,1.87-22.6,5.61c-6.69,3.74-12.02,8.91-15.99,15.48l.79,.48-.34-.2-.46-.28h0c-3.87,6.49-5.79,13.87-5.79,22.12s1.98,15.7,5.96,22.29c3.97,6.58,9.42,11.75,16.33,15.49l.45-.82-.07,.14-.38,.68h.01s.01,0,.01,0c7.03,3.63,15.01,5.43,23.9,5.43,6.88,0,13.22-1.18,19-3.57,5.8-2.39,10.75-5.97,14.84-10.74l-.71-.6,.66-.65-13.98-13.99-.66,.66h0s.66-.66,.66-.66l-.7-.7-.65,.74c-2.35,2.67-5.08,4.7-8.16,6.08h0c-3.09,1.28-6.57,1.93-10.46,1.93-4.2,0-7.82-.86-10.88-2.55-2.94-1.79-5.24-4.26-6.94-7.42h0c-.36-.75-.68-1.54-.96-2.36l56.74-.14h.75s.16-.74,.16-.74c.45-2.14,.73-4.01,.85-5.62h0c.22-1.68,.33-3.26,.33-4.73Zm-1.27,4.66l-.91-.12v.06c-.1,1.32-.32,2.87-.67,4.64l-56.53,.13h-1.91c.15,.64,.32,1.26,.5,1.86,.35,1.1,.76,2.16,1.24,3.17l.84-.4-.05,.02-.79,.38v.02s.02,.02,.02,.02c1.85,3.47,4.41,6.21,7.66,8.18l.53-.88-.49,.9c3.37,1.86,7.31,2.78,11.77,2.78,4.1,0,7.83-.68,11.17-2.07l-.41-1,.44,.99c3.05-1.37,5.76-3.32,8.14-5.84l12.68,12.68c-3.79,4.23-8.3,7.44-13.56,9.6-5.54,2.28-11.63,3.43-18.3,3.43-8.63,0-16.31-1.75-23.03-5.22h0c-6.63-3.59-11.84-8.52-15.64-14.82-3.79-6.28-5.69-13.39-5.69-21.33s1.85-15,5.53-21.17h0c3.8-6.3,8.9-11.24,15.31-14.82,6.4-3.58,13.62-5.38,21.69-5.38s14.74,1.69,20.69,5.04c5.96,3.36,10.61,8.01,13.97,13.97l.97-.55-.17,.1-.81,.45h.01c3.46,5.96,5.2,12.79,5.2,20.52,0,1.4-.11,2.91-.33,4.54l.91,.12h0Z"/>
      </g>
      <g>
        <polygon class="cls-1" points="1318.33 41.06 1317.96 41.91 1318.29 41.14 1318.33 41.06"/>
        <polygon class="cls-1" points="1310.31 66.15 1311 65.53 1311.73 66.11 1311 65.53 1310.31 66.15"/>
        <path class="cls-1" d="M1317.98,41.92h-.02c-2.74-1.17-6-1.77-9.79-1.77-8.54,0-15.12,2.46-19.89,7.28-.09,.09-.18,.17-.26,.26-.55,.57-1.08,1.18-1.59,1.81v-7.69h-23.62V120.88h23.62v-43.53c0-.64,.02-1.25,.06-1.86,.17-2.88,.77-5.36,1.79-7.42,.56-1.13,1.24-2.15,2.07-3.02h0c2.75-2.87,6.39-4.28,10.82-4.28,2.21,0,4.22,.35,6.01,1.07,1.42,.57,2.66,1.35,3.73,2.31l14.02-17.71c-2.01-2.04-4.3-3.55-6.92-4.51h-.02Z"/>
        <polygon class="cls-3" points="1310.31 66.15 1311.05 66.96 1311.73 66.11 1311 65.53 1310.31 66.15"/>
        <path class="cls-3" d="M1326.84,45.76c-2.31-2.54-5.03-4.39-8.15-5.56h0c-3.03-1.28-6.54-1.91-10.52-1.91-8.18,0-14.85,2.18-19.89,6.6v-4.94h-27.33V122.74h27.33v-45.38c0-5.09,1.19-8.7,3.41-11.01h0c2.35-2.45,5.48-3.71,9.48-3.71,2.02,0,3.78,.32,5.32,.93,1.55,.62,2.82,1.49,3.82,2.59l.69-.63,.73,.58,15.15-19.15,.49-.62-.53-.58Zm-15.93,18.39c-1.06-.97-2.3-1.74-3.73-2.31-1.79-.72-3.8-1.07-6.01-1.07-4.43,0-8.07,1.41-10.82,4.28h0c-.83,.87-1.51,1.89-2.07,3.02-1.03,2.06-1.62,4.54-1.79,7.42-.04,.6-.06,1.22-.06,1.86v43.53h-23.62V41.82h23.62v7.69c.51-.63,1.04-1.24,1.59-1.81,.08-.09,.17-.17,.26-.26,4.77-4.82,11.35-7.28,19.89-7.28,3.79,0,7.05,.6,9.79,1.76l.36-.85-.03,.08-.33,.77h.02s.02,.02,.02,.02c2.62,.97,4.92,2.47,6.92,4.51l-14.02,17.71Z"/>
      </g>
      <g>
        <polygon class="cls-1" points="564.32 93.5 563.48 93.91 564.31 93.5 564.32 93.5"/>
        <polygon class="cls-1" points="594.17 102.84 593.78 101.98 594.14 102.85 593.79 102 594.17 102.84"/>
        <polygon class="cls-1" points="616.78 58.53 615.96 58.99 616.76 58.54 616.78 58.53"/>
        <polygon class="cls-1" points="620.93 89.68 621.83 89.87 620.93 89.68 620.93 89.68"/>
        <polygon class="cls-1" points="559.21 119.13 559.65 118.31 559.23 119.14 559.66 118.3 559.21 119.13"/>
        <polygon class="cls-1" points="602.28 95.67 601.58 95.06 602.28 95.67 602.28 95.67"/>
        <path class="cls-1" d="M620.84,84.11v-.03s0-.03,0-.03c.22-1.63,.33-3.14,.33-4.54,0-7.74-1.74-14.57-5.2-20.51h0c-3.36-5.97-8.01-10.62-13.97-13.98-5.95-3.35-12.84-5.04-20.69-5.04s-15.3,1.8-21.69,5.38c-6.41,3.58-11.51,8.52-15.31,14.82h0c-3.68,6.17-5.53,13.22-5.53,21.17s1.9,15.05,5.69,21.33c3.8,6.29,9,11.23,15.63,14.81,6.73,3.47,14.4,5.22,23.04,5.22,6.66,0,12.76-1.15,18.3-3.43,5.26-2.17,9.77-5.37,13.56-9.6l-12.68-12.68c-2.37,2.51-5.08,4.47-8.14,5.84h-.01s-.01,.01-.01,.01c-3.35,1.39-7.08,2.07-11.18,2.07-4.46,0-8.39-.91-11.77-2.78h-.02s-.02-.02-.02-.02c-3.26-1.98-5.81-4.71-7.66-8.18v-.02s-.02-.02-.02-.02c-.49-1-.89-2.06-1.24-3.17-.19-.6-.36-1.22-.5-1.85h1.9s56.53-.14,56.53-.14c.35-1.77,.58-3.32,.67-4.64Z"/>
        <polygon class="cls-1" points="543.5 59.7 542.71 59.22 543.46 59.68 543.5 59.7"/>
        <polygon class="cls-1" points="571.19 102.14 571.64 101.32 571.16 102.12 571.64 101.33 571.19 102.14"/>
        <polygon class="cls-3" points="559.21 119.13 559.22 119.13 559.23 119.14 559.65 118.31 559.21 119.13"/>
        <polygon class="cls-3" points="594.17 102.84 593.79 102 594.14 102.85 594.15 102.85 594.17 102.84"/>
        <polygon class="cls-3" points="571.19 102.14 571.64 101.33 571.16 102.12 571.18 102.13 571.19 102.14"/>
        <path class="cls-3" d="M623.02,79.52c0-8.02-1.81-15.17-5.45-21.43h0s0,0,0,0c0,0,0,0,0,0h0c-3.52-6.25-8.42-11.14-14.67-14.66-6.26-3.53-13.47-5.28-21.6-5.28s-15.9,1.87-22.6,5.61c-6.69,3.74-12.03,8.91-15.99,15.48l.79,.48-.04-.02-.75-.45h0c-3.87,6.49-5.79,13.87-5.79,22.12s1.98,15.7,5.96,22.29c3.97,6.58,9.42,11.75,16.34,15.49l.45-.83-.43,.83c7.03,3.63,15.01,5.43,23.9,5.43,6.88,0,13.22-1.18,19-3.57,5.8-2.39,10.75-5.97,14.84-10.74l.56-.65-.61-.61-13.99-13.99-.7-.7-.65,.74,.7,.61h0s-.7-.61-.7-.61c-2.35,2.68-5.07,4.7-8.16,6.09-3.09,1.28-6.57,1.93-10.46,1.93-4.19,0-7.8-.86-10.86-2.54-2.95-1.79-5.27-4.27-6.96-7.45-.36-.75-.67-1.53-.95-2.34l56.74-.14h.75s.15-.74,.15-.74l-.91-.19h0s.91,.19,.91,.19c.45-2.14,.73-4.01,.85-5.62h0c.22-1.68,.34-3.26,.34-4.73Zm-59.38,9.37h-1.9c.15,.64,.32,1.26,.5,1.86,.35,1.1,.76,2.16,1.24,3.17l.84-.4h0s-.83,.4-.83,.4v.02s.02,.02,.02,.02c1.85,3.47,4.41,6.21,7.66,8.18l.49-.8-.45,.82c3.38,1.86,7.31,2.78,11.77,2.78,4.1,0,7.83-.68,11.18-2.07l-.36-.87,.39,.86c3.06-1.37,5.77-3.32,8.14-5.84l12.68,12.68c-3.79,4.23-8.3,7.44-13.56,9.6-5.54,2.28-11.63,3.43-18.3,3.43-8.64,0-16.31-1.75-23.04-5.22-6.63-3.59-11.83-8.52-15.63-14.81-3.79-6.28-5.69-13.39-5.69-21.33s1.85-15,5.53-21.17h0c3.8-6.3,8.9-11.24,15.31-14.82,6.4-3.58,13.62-5.38,21.69-5.38s14.74,1.69,20.69,5.04c5.96,3.36,10.61,8.01,13.97,13.97l.82-.46h-.02s-.8,.46-.8,.46h0c3.46,5.96,5.2,12.79,5.2,20.52,0,1.4-.11,2.91-.33,4.54v.03s0,.03,0,.03c-.09,1.32-.32,2.87-.67,4.64l-56.53,.13Z"/>
      </g>
      <g>
        <polygon class="cls-1" points="714.55 64.7 714.1 65.51 714.55 64.7 714.55 64.7"/>
        <polygon class="cls-1" points="718.89 95.8 718.21 95.17 718.9 95.79 718.2 95.16 718.89 95.8"/>
        <polygon class="cls-1" points="695.74 64.7 696.21 65.49 695.74 64.7 695.74 64.7"/>
        <polygon class="cls-1" points="689.24 71.36 688.43 70.92 689.24 71.36 689.24 71.36"/>
        <path class="cls-1" d="M720.06,71.79h0c-1.36-2.74-3.34-4.82-5.95-6.28h-.02s-.02-.02-.02-.02c-2.5-1.56-5.43-2.36-8.83-2.36s-6.4,.8-9.01,2.37h-.01s0,0,0,0c-2.51,1.46-4.56,3.56-6.15,6.31-1.47,2.73-2.21,5.9-2.21,9.54s.75,6.65,2.22,9.38c1.48,2.74,3.52,4.89,6.16,6.47,2.62,1.57,5.56,2.37,8.85,2.37,5.22,0,9.34-1.69,12.48-5.03,3.15-3.47,4.75-7.84,4.75-13.19,0-3.64-.75-6.82-2.22-9.55h0Z"/>
        <polygon class="cls-1" points="720.87 71.36 720.06 71.8 720.88 71.36 720.87 71.36"/>
        <path class="cls-3" d="M721.71,70.95h0s0,0,0-.01c0,0,0,0,0-.01h0c-1.52-3.02-3.74-5.37-6.65-7.01h0s0,0-.01,0c0,0-.02-.01-.03-.02h0c-2.82-1.75-6.09-2.62-9.78-2.62s-7.03,.87-9.96,2.62h0s0,0,0,0c0,0,0,0,0,0h0c-2.81,1.64-5.08,3.98-6.82,6.99h0s0,.02,0,.02l.82,.44h0s-.82-.44-.82-.44c-1.64,3.04-2.44,6.53-2.44,10.43s.81,7.23,2.44,10.26c1.63,3.03,3.91,5.43,6.83,7.18,2.93,1.76,6.2,2.63,9.8,2.63,5.66,0,10.3-1.86,13.83-5.62l-.69-.65,.7,.64c3.5-3.85,5.24-8.69,5.24-14.44,0-3.89-.8-7.37-2.43-10.4Zm-4.17,23.59c-3.13,3.34-7.26,5.03-12.48,5.03-3.28,0-6.23-.79-8.85-2.37-2.63-1.58-4.68-3.73-6.16-6.47-1.47-2.74-2.22-5.86-2.22-9.38s.75-6.81,2.21-9.54c1.59-2.75,3.64-4.85,6.15-6.31h0s.01,0,.01,0l-.48-.79h0s0,0,0,0h0s.48,.79,.48,.79c2.62-1.57,5.61-2.37,9.01-2.37s6.34,.8,8.83,2.36h.02s.02,.02,.02,.02l.45-.81h0s-.45,.81-.45,.81c2.61,1.46,4.59,3.54,5.95,6.27h0s0,.02,0,.02l.81-.44h0s-.82,.44-.82,.44c1.47,2.73,2.22,5.91,2.22,9.55,0,5.35-1.6,9.72-4.75,13.19Z"/>
        <polygon class="cls-3" points="718.89 95.8 718.89 95.8 718.9 95.79 718.21 95.17 718.89 95.8"/>
        <line class="cls-2" x1="695.74" y1="64.7" x2="695.74" y2="64.7"/>
        <line class="cls-2" x1="695.74" y1="64.7" x2="695.74" y2="64.7"/>
      </g>
      <g>
        <polygon class="cls-1" points="666.07 103.01 666.1 103 665.7 103.2 666.07 103.01"/>
        <polygon class="cls-1" points="666.09 59.7 665.28 59.27 666.1 59.7 666.09 59.7"/>
        <polygon class="cls-1" points="679.42 118.76 679.92 117.98 679.43 118.77 679.94 117.94 679.42 118.76"/>
        <polygon class="cls-1" points="679.43 43.93 679.92 44.72 679.42 43.94 679.94 44.76 679.43 43.93"/>
        <polygon class="cls-1" points="714.15 43.22 714.57 42.35 714.14 43.22 714.55 42.39 714.15 43.22"/>
        <path class="cls-1" d="M746.26,41.82h-23.12v8.11c-.59-.67-1.2-1.31-1.85-1.92-2.06-1.91-4.43-3.5-7.13-4.79h0c-4.19-2.04-8.93-3.07-14.25-3.07-7.28,0-13.77,1.79-19.49,5.35h0c-5.63,3.57-10.12,8.44-13.49,14.64-3.25,6.18-4.89,13.24-4.89,21.21s1.64,15.03,4.89,21.21c3.37,6.19,7.87,11.06,13.49,14.64,5.72,3.56,12.21,5.35,19.49,5.35,5.32,0,10.12-1.03,14.42-3.07,2.66-1.26,4.97-2.81,6.96-4.63,.66-.6,1.27-1.24,1.85-1.9v7.94h23.12V41.82Z"/>
        <polygon class="cls-3" points="679.42 118.76 679.43 118.77 679.92 117.98 679.42 118.76"/>
        <path class="cls-3" d="M747.19,39.96h-25.9v5.59c-1.89-1.56-4-2.89-6.33-4h0s0,0,0,0c0,0,0,0,0,0h0c-4.47-2.18-9.49-3.25-15.05-3.25-7.6,0-14.43,1.87-20.47,5.63l.52,.83-.52-.82c-5.91,3.75-10.62,8.87-14.14,15.33l.75,.41-.75-.41h0s.82,.44,.82,.44h0s-.82-.43-.82-.43c-3.41,6.48-5.1,13.84-5.1,22.08s1.69,15.6,5.1,22.08h0s0,.01,0,.01c3.51,6.46,8.22,11.57,14.14,15.33l.52-.82-.52,.83c6.04,3.76,12.87,5.64,20.47,5.64,5.56,0,10.64-1.08,15.22-3.25,2.28-1.08,4.34-2.37,6.17-3.86v5.44h26.83V39.96h-.93Zm-81.12,63.05l-.37,.19,.39-.21h-.03Zm57.07,12.63v-2.69c-.58,.66-1.2,1.3-1.85,1.9-1.99,1.82-4.31,3.37-6.96,4.63-4.3,2.04-9.11,3.07-14.42,3.07-7.28,0-13.77-1.79-19.49-5.35-5.63-3.57-10.12-8.44-13.49-14.64-3.25-6.18-4.89-13.24-4.89-21.21s1.64-15.03,4.89-21.21c3.37-6.19,7.87-11.06,13.49-14.64h0c5.73-3.56,12.21-5.35,19.49-5.35,5.32,0,10.06,1.03,14.25,3.07l.43-.87-.42,.88c2.7,1.28,5.07,2.88,7.13,4.79,.65,.61,1.26,1.25,1.85,1.92v-8.11h23.12V120.88h-23.12v-5.26Z"/>
        <polygon class="cls-3" points="679.43 43.93 679.42 43.94 679.92 44.72 679.43 43.93"/>
        <polygon class="cls-3" points="714.55 42.39 714.14 43.22 714.15 43.22 714.55 42.39"/>
      </g>
      <g>
        <polygon class="cls-1" points="797.43 63.38 797.89 64.17 797.43 63.37 797.43 63.38"/>
        <polygon class="cls-1" points="792.43 68.36 793.24 68.81 792.43 68.36 792.43 68.36"/>
        <polygon class="cls-1" points="814.57 65.54 813.93 66.2 814.58 65.53 814.57 65.54"/>
        <polygon class="cls-1" points="828.59 44.35 829.07 43.54 828.57 44.34 829.06 43.55 828.59 44.35"/>
        <path class="cls-1" d="M843.12,70.03c0-5.39-1.29-10.34-3.87-14.86-2.58-4.52-6.13-8.13-10.66-10.82h-.01s-.01-.01-.01-.01c-4.39-2.78-9.48-4.19-15.32-4.19s-11.53,1.3-16.38,3.89h0c-1.96,1.03-3.73,2.24-5.33,3.63-.65,.56-1.26,1.15-1.85,1.77v-7.62h-23.62V120.88h23.62v-45.2c0-.5,.03-.98,.06-1.46,.18-2.25,.77-4.31,1.79-6.14,.03-.06,.06-.12,.09-.18h0s0,0,0,0c0,0,0,0,0-.01h0c1.3-2.35,3.07-4.13,5.33-5.33h0s.02-.01,.03-.02c0,0,0,0,0,0h0c2.26-1.3,4.86-1.94,7.76-1.94,4.21,0,7.72,1.41,10.46,4.25h0s0,0,.01,.01c0,0,.01,0,.02,.01h0c2.85,2.75,4.25,6.38,4.25,10.8v45.2h23.62v-50.86Z"/>
        <polygon class="cls-3" points="828.59 44.35 829.06 43.55 828.57 44.34 828.58 44.34 828.59 44.35"/>
        <path class="cls-3" d="M840.86,54.25c-2.74-4.8-6.51-8.62-11.3-11.48h0s0,0,0,0c0,0-.01,0-.02-.01h0c-4.71-2.98-10.15-4.46-16.29-4.46s-12.11,1.36-17.25,4.1h0s0,0,0,0c0,0,0,0,0,0h0c-1.6,.84-3.08,1.81-4.47,2.88v-5.32h-27.33V122.74h27.33v-47.05c0-2.64,.58-4.91,1.71-6.86h0s0-.02,0-.02l-.81-.45h0s.81,.45,.81,.45c1.14-2.07,2.68-3.6,4.61-4.62h.02s.02-.02,.02-.02l-.46-.79h0s.46,.79,.46,.79c1.95-1.13,4.23-1.71,6.86-1.71,3.77,0,6.79,1.25,9.15,3.71h.01s.01,.03,.01,.03l.64-.66h0s-.64,.66-.64,.66c2.46,2.35,3.71,5.48,3.71,9.49v47.05h27.33v-52.71c0-5.71-1.37-10.97-4.12-15.78Zm-21.36,21.44c0-4.42-1.4-8.05-4.25-10.8h0s-.01-.01-.02-.02c0,0,0,0-.01-.01h0c-2.74-2.84-6.25-4.25-10.46-4.25-2.9,0-5.5,.64-7.76,1.94h0s0,0,0,0c0,0-.02,0-.03,.01h0c-2.26,1.2-4.04,2.99-5.33,5.33h0s0,0,0,.01c0,0,0,0,0,0h0c-.03,.06-.06,.12-.09,.18-1.02,1.83-1.61,3.89-1.79,6.14-.04,.48-.06,.96-.06,1.46v45.2h-23.62V41.82h23.62v7.62c.59-.62,1.21-1.21,1.85-1.77,1.61-1.39,3.38-2.6,5.33-3.63h0c4.85-2.59,10.3-3.89,16.38-3.89s10.94,1.4,15.32,4.19l.51-.8-.48,.81c4.53,2.69,8.08,6.3,10.66,10.82,2.58,4.52,3.87,9.46,3.87,14.86v50.86h-23.62v-45.2Z"/>
      </g>
      <g>
        <polygon class="cls-1" points="961.46 40.89 962.35 40.63 961.46 40.89 961.46 40.89"/>
        <polygon class="cls-1" points="879.56 40.89 880.44 40.6 879.56 40.89 879.56 40.89"/>
        <polygon class="cls-1" points="1040.55 40.89 1039.66 40.62 1040.55 40.89 1040.55 40.89"/>
        <polygon class="cls-1" points="890.71 155.94 891.57 156.31 890.71 155.94 890.71 155.94"/>
        <polygon class="cls-1" points="912.19 40.89 911.31 40.59 912.19 40.89 912.19 40.89"/>
        <polygon class="cls-1" points="1027.57 87.75 1026.64 90.88 1025.63 87.78 1010.57 41.82 991.27 41.82 976.28 87.94 975.27 91.06 974.34 87.91 960.76 41.82 940.28 41.82 939.67 41.82 938.26 41.82 937.78 41.82 936.48 41.82 935.82 41.82 912.86 41.82 896.66 90.04 895.67 92.97 894.71 90.03 878.89 41.82 853.47 41.82 883.02 113.93 883.98 116.27 882.92 118.57 866.02 155.02 890.1 155.02 903.63 123.07 903.96 122.31 904.18 121.78 905.03 122.14 905.03 122.14 905.03 122.14 905.03 122.14 904.18 121.78 904.42 121.22 904.76 120.42 936.91 44.98 938.9 44.98 965.11 120.88 984.44 120.88 1000.08 75.19 1001.06 72.31 1002.03 75.19 1017.4 120.88 1036.89 120.88 1064.23 41.82 1041.23 41.82 1027.57 87.75"/>
        <polygon class="cls-1" points="905.2 122.22 905.03 122.14 905.32 122.27 905.4 122.3 905.2 122.22"/>
        <polygon class="cls-1" points="1016.74 121.81 1015.86 122.11 1016.74 121.81 1016.74 121.81"/>
        <path class="cls-3" d="M1065.52,39.96h-25.67l-.19,.66,.89,.26h0s-.89-.26-.89-.26l-13.1,44.03-14.44-44.05-.21-.64h-21.99l-.21,.64-14.36,44.19-13.01-44.17-.89,.26h0s.89-.26,.89-.26l-.2-.66h-50.62l-.21,.63,.88,.3h0s-.88-.3-.88-.3l-15.62,46.5-15.26-46.49-.88,.29h0s.88-.29,.88-.29l-.21-.64h-29.53l.52,1.28,30.73,74.99-18.23,39.33-.61,1.32h28.21l.24-.57-.85-.36h0s.85,.36,.85,.36l14.27-33.68,.05-.12,31.93-74.91,25.76,74.52,.22,.62h21.97l.21-.63,15.07-44.04,14.81,44.04,.88-.3h0s-.88,.3-.88,.3l.21,.63h22.14l.21-.62,27.98-80.92,.42-1.23h-1.3Zm-160.49,82.18l.17,.07,.2,.09-.08-.03-.29-.12Zm131.85-1.26h-19.49l-15.37-45.7-.97-2.88-.99,2.88-15.64,45.7h-19.32l-26.21-75.9h-1.98l-32.15,75.43-.34,.8-.24,.56,.85,.36h0s0,0,0,0l-.85-.36-.23,.53-.32,.76-13.53,31.95h-24.08l16.89-36.45,1.06-2.29-.96-2.34-29.56-72.12h25.42l15.82,48.21,.97,2.94,.99-2.94,16.2-48.22h47.9l13.58,46.1,.93,3.15,1.01-3.12,14.98-46.12h19.3l15.06,45.97,1.01,3.1,.93-3.13,13.66-45.93h22.99l-27.34,79.07Z"/>
      </g>
    </g>
  </g>
</svg>